<?xml version="1.0"?>
<svg width="8884" height="2114" xmlns="http://www.w3.org/2000/svg" version="1.1">
 <polygon points="4,2111 4,4 8881,4 8881,2111 4,2111" stroke="#ffffff" fill="#ffffff"/>
 <polygon points="24,2046 265,2046 919,2046 1883,2046 3053,2046 4327,2046 5600,2046 6770,2046 7734,2046 8388,2046 8629,2046 8631,2046 8633,2045 8634,2045 8636,2044 8637,2042 8639,2041 8640,2039 8640,2038 8641,2036 8641,2034 8641,1982 8641,1842 8641,1636 8641,1386 8641,1113 8641,840 8641,590 8641,384 8641,244 8641,192 8641,190 8640,188 8640,187 8639,185 8637,184 8636,182 8634,181 8633,181 8631,180 8629,180 8388,180 7734,180 6770,180 5600,180 4327,180 3053,180 1883,180 919,180 265,180 24,180 22,180 20,181 19,181 17,182 16,184 14,185 13,187 13,188 12,190 12,192 12,244 12,384 12,590 12,840 12,1113 12,1386 12,1636 12,1842 12,1982 12,2034 12,2036 13,2038 13,2039 14,2041 16,2042 17,2044 19,2045 20,2045 22,2046 24,2046" stroke="#000000" fill="#FFFFCC"/>
 <polygon points="32,2038 262,2038 886,2038 1806,2038 2923,2038 4139,2038 5354,2038 6471,2038 7391,2038 8015,2038 8245,2038 8247,2038 8249,2037 8250,2037 8252,2036 8253,2034 8255,2033 8256,2031 8256,2030 8257,2028 8257,2026 8257,1979 8257,1851 8257,1664 8257,1435 8257,1187 8257,939 8257,710 8257,523 8257,395 8257,348 8257,346 8256,344 8256,343 8255,341 8253,340 8252,338 8250,337 8249,337 8247,336 8245,336 8015,336 7391,336 6471,336 5354,336 4139,336 2923,336 1806,336 886,336 262,336 32,336 30,336 28,337 27,337 25,338 24,340 22,341 21,343 21,344 20,346 20,348 20,395 20,523 20,710 20,939 20,1187 20,1435 20,1664 20,1851 20,1979 20,2026 20,2028 21,2030 21,2031 22,2033 24,2034 25,2036 27,2037 28,2037 30,2038 32,2038" stroke="#000000" fill="#F0FFF0"/>
 <polygon points="649,658 653,658 665,658 683,658 705,658 728,658 751,658 773,658 791,658 803,658 807,658 809,658 811,657 812,657 814,656 815,654 817,653 818,651 818,650 819,648 819,646 819,645 819,643 819,640 819,636 819,632 819,628 819,624 819,621 819,619 819,618 819,616 818,614 818,613 817,611 815,610 814,608 812,607 811,607 809,606 807,606 803,606 791,606 773,606 751,606 728,606 705,606 683,606 665,606 653,606 649,606 647,606 645,607 644,607 642,608 641,610 639,611 638,613 638,614 637,616 637,618 637,619 637,621 637,624 637,628 637,632 637,636 637,640 637,643 637,645 637,646 637,648 638,650 638,651 639,653 641,654 642,656 644,657 645,657 647,658 649,658" stroke="#000000" fill="#DFFFFF"/>
 <polygon points="811,614 645,614 645,650 811,650 811,614" stroke="#0000ff" fill="#ffffff"/>
 <text x="653" y="634" fill="#000000" font-family="Arial" font-size="12">Thread.sleep(10000);</text>
 <polygon points="1212,1966 1409,1966 1943,1966 2729,1966 3685,1966 4725,1966 5764,1966 6720,1966 7506,1966 8040,1966 8237,1966 8239,1966 8241,1965 8242,1965 8244,1964 8245,1962 8247,1961 8248,1959 8248,1958 8249,1956 8249,1954 8249,1919 8249,1823 8249,1682 8249,1511 8249,1325 8249,1139 8249,968 8249,827 8249,731 8249,696 8249,694 8248,692 8248,691 8247,689 8245,688 8244,686 8242,685 8241,685 8239,684 8237,684 8040,684 7506,684 6720,684 5764,684 4725,684 3685,684 2729,684 1943,684 1409,684 1212,684 1210,684 1208,685 1207,685 1205,686 1204,688 1202,689 1201,691 1201,692 1200,694 1200,696 1200,731 1200,827 1200,968 1200,1139 1200,1325 1200,1511 1200,1682 1200,1823 1200,1919 1200,1954 1200,1956 1201,1958 1201,1959 1202,1961 1204,1962 1205,1964 1207,1965 1208,1965 1210,1966 1212,1966" stroke="#000000" fill="#DFFFFF"/>
 <polygon points="4112,1958 4227,1958 4540,1958 5001,1958 5561,1958 6171,1958 6780,1958 7340,1958 7801,1958 8114,1958 8229,1958 8231,1958 8233,1957 8234,1957 8236,1956 8237,1954 8239,1953 8240,1951 8240,1950 8241,1948 8241,1946 8241,1911 8241,1817 8241,1678 8241,1509 8241,1325 8241,1141 8241,972 8241,833 8241,739 8241,704 8241,702 8240,700 8240,699 8239,697 8237,696 8236,694 8234,693 8233,693 8231,692 8229,692 8114,692 7801,692 7340,692 6780,692 6171,692 5561,692 5001,692 4540,692 4227,692 4112,692 4110,692 4108,693 4107,693 4105,694 4104,696 4102,697 4101,699 4101,700 4100,702 4100,704 4100,739 4100,833 4100,972 4100,1141 4100,1325 4100,1509 4100,1678 4100,1817 4100,1911 4100,1946 4100,1948 4101,1950 4101,1951 4102,1953 4104,1954 4105,1956 4107,1957 4108,1957 4110,1958 4112,1958" stroke="#000000" fill="#FFE5E2"/>
 <polygon points="5738,1950 5808,1950 5996,1950 6274,1950 6612,1950 6980,1950 7347,1950 7685,1950 7963,1950 8151,1950 8221,1950 8223,1950 8225,1949 8226,1949 8228,1948 8229,1946 8231,1945 8232,1943 8232,1942 8233,1940 8233,1938 8233,1904 8233,1810 8233,1673 8233,1506 8233,1325 8233,1144 8233,977 8233,840 8233,746 8233,712 8233,710 8232,708 8232,707 8231,705 8229,704 8228,702 8226,701 8225,701 8223,700 8221,700 8151,700 7963,700 7685,700 7347,700 6980,700 6612,700 6274,700 5996,700 5808,700 5738,700 5736,700 5734,701 5733,701 5731,702 5730,704 5728,705 5727,707 5727,708 5726,710 5726,712 5726,746 5726,840 5726,977 5726,1144 5726,1325 5726,1506 5726,1673 5726,1810 5726,1904 5726,1938 5726,1940 5727,1942 5727,1943 5728,1945 5730,1946 5731,1948 5733,1949 5734,1949 5736,1950 5738,1950" stroke="#000000" fill="#FFFFCC"/>
 <polygon points="7640,1899 7641,1899 7645,1899 7651,1899 7658,1899 7666,1899 7674,1899 7681,1899 7687,1899 7691,1899 7692,1899 7694,1899 7696,1898 7697,1898 7699,1897 7700,1895 7702,1894 7703,1892 7703,1891 7704,1889 7704,1887 7704,1886 7704,1884 7704,1881 7704,1877 7704,1873 7704,1869 7704,1865 7704,1862 7704,1860 7704,1859 7704,1857 7703,1855 7703,1854 7702,1852 7700,1851 7699,1849 7697,1848 7696,1848 7694,1847 7692,1847 7691,1847 7687,1847 7681,1847 7674,1847 7666,1847 7658,1847 7651,1847 7645,1847 7641,1847 7640,1847 7638,1847 7636,1848 7635,1848 7633,1849 7632,1851 7630,1852 7629,1854 7629,1855 7628,1857 7628,1859 7628,1860 7628,1862 7628,1865 7628,1869 7628,1873 7628,1877 7628,1881 7628,1884 7628,1886 7628,1887 7628,1889 7629,1891 7629,1892 7630,1894 7632,1895 7633,1897 7635,1898 7636,1898 7638,1899 7640,1899" stroke="#000000" fill="#F0FFF0"/>
 <polygon points="7695,1855 7637,1855 7637,1891 7695,1891 7695,1855" stroke="#0000ff" fill="#ffffff"/>
 <text x="7645" y="1875" fill="#000000" font-family="Arial" font-size="12">return;</text>
 <polygon points="5746,1385 5814,1385 5997,1385 6267,1385 6595,1385 6952,1385 7309,1385 7637,1385 7907,1385 8090,1385 8158,1385 8160,1385 8162,1384 8163,1384 8165,1383 8166,1381 8168,1380 8169,1378 8169,1377 8170,1375 8170,1373 8170,1355 8170,1305 8170,1232 8170,1143 8170,1047 8170,950 8170,861 8170,788 8170,738 8170,720 8170,718 8169,716 8169,715 8168,713 8166,712 8165,710 8163,709 8162,709 8160,708 8158,708 8090,708 7907,708 7637,708 7309,708 6952,708 6595,708 6267,708 5997,708 5814,708 5746,708 5744,708 5742,709 5741,709 5739,710 5738,712 5736,713 5735,715 5735,716 5734,718 5734,720 5734,738 5734,788 5734,861 5734,950 5734,1047 5734,1143 5734,1232 5734,1305 5734,1355 5734,1373 5734,1375 5735,1377 5735,1378 5736,1380 5738,1381 5739,1383 5741,1384 5742,1384 5744,1385 5746,1385" stroke="#000000" fill="#F0FFF0"/>
 <polygon points="5754,1377 5821,1377 6003,1377 6272,1377 6597,1377 6952,1377 7307,1377 7632,1377 7901,1377 8083,1377 8150,1377 8152,1377 8154,1376 8155,1376 8157,1375 8158,1373 8160,1372 8161,1370 8161,1369 8162,1367 8162,1365 8162,1355 8162,1327 8162,1285 8162,1235 8162,1180 8162,1125 8162,1075 8162,1033 8162,1005 8162,995 8162,993 8161,991 8161,990 8160,988 8158,987 8157,985 8155,984 8154,984 8152,983 8150,983 8083,983 7901,983 7632,983 7307,983 6952,983 6597,983 6272,983 6003,983 5821,983 5754,983 5752,983 5750,984 5749,984 5747,985 5746,987 5744,988 5743,990 5743,991 5742,993 5742,995 5742,1005 5742,1033 5742,1075 5742,1125 5742,1180 5742,1235 5742,1285 5742,1327 5742,1355 5742,1365 5742,1367 5743,1369 5743,1370 5744,1372 5746,1373 5747,1375 5749,1376 5750,1376 5752,1377 5754,1377" stroke="#000000" fill="#DFFFFF"/>
 <polygon points="5762,1179 5783,1179 5840,1179 5924,1179 6026,1179 6137,1179 6248,1179 6350,1179 6434,1179 6491,1179 6512,1179 6514,1179 6516,1178 6517,1178 6519,1177 6520,1175 6522,1174 6523,1172 6523,1171 6524,1169 6524,1167 6524,1166 6524,1164 6524,1161 6524,1157 6524,1153 6524,1149 6524,1145 6524,1142 6524,1140 6524,1139 6524,1137 6523,1135 6523,1134 6522,1132 6520,1131 6519,1129 6517,1128 6516,1128 6514,1127 6512,1127 6491,1127 6434,1127 6350,1127 6248,1127 6137,1127 6026,1127 5924,1127 5840,1127 5783,1127 5762,1127 5760,1127 5758,1128 5757,1128 5755,1129 5754,1131 5752,1132 5751,1134 5751,1135 5750,1137 5750,1139 5750,1140 5750,1142 5750,1145 5750,1149 5750,1153 5750,1157 5750,1161 5750,1164 5750,1166 5750,1167 5750,1169 5751,1171 5751,1172 5752,1174 5754,1175 5755,1177 5757,1178 5758,1178 5760,1179 5762,1179" stroke="#000000" fill="#FFE5E2"/>
 <polygon points="6516,1135 5758,1135 5758,1171 6516,1171 6516,1135" stroke="#0000ff" fill="#ffffff"/>
 <text x="5766" y="1155" fill="#000000" font-family="Arial" font-size="12">recordDataOut(tmplist, myCallCursor, tempNumber, tempDuration, tempCachedname, Datel2, TimeZonel2);</text>
 <polygon points="6544,1369 6589,1369 6710,1369 6889,1369 7106,1369 7343,1369 7580,1369 7797,1369 7976,1369 8097,1369 8142,1369 8144,1369 8146,1368 8147,1368 8149,1367 8150,1365 8152,1364 8153,1362 8153,1361 8154,1359 8154,1357 8154,1351 8154,1333 8154,1308 8154,1277 8154,1244 8154,1210 8154,1179 8154,1154 8154,1136 8154,1130 8154,1128 8153,1126 8153,1125 8152,1123 8150,1122 8149,1120 8147,1119 8146,1119 8144,1118 8142,1118 8097,1118 7976,1118 7797,1118 7580,1118 7343,1118 7106,1118 6889,1118 6710,1118 6589,1118 6544,1118 6542,1118 6540,1119 6539,1119 6537,1120 6536,1122 6534,1123 6533,1125 6533,1126 6532,1128 6532,1130 6532,1136 6532,1154 6532,1179 6532,1210 6532,1244 6532,1277 6532,1308 6532,1333 6532,1351 6532,1357 6532,1359 6533,1361 6533,1362 6534,1364 6536,1365 6537,1367 6539,1368 6540,1368 6542,1369 6544,1369" stroke="#000000" fill="#FFE5E2"/>
 <polygon points="6552,1361 6574,1361 6633,1361 6720,1361 6826,1361 6941,1361 7056,1361 7162,1361 7249,1361 7308,1361 7330,1361 7332,1361 7334,1360 7335,1360 7337,1359 7338,1357 7340,1356 7341,1354 7341,1353 7342,1351 7342,1349 7342,1348 7342,1346 7342,1343 7342,1339 7342,1335 7342,1331 7342,1327 7342,1324 7342,1322 7342,1321 7342,1319 7341,1317 7341,1316 7340,1314 7338,1313 7337,1311 7335,1310 7334,1310 7332,1309 7330,1309 7308,1309 7249,1309 7162,1309 7056,1309 6941,1309 6826,1309 6720,1309 6633,1309 6574,1309 6552,1309 6550,1309 6548,1310 6547,1310 6545,1311 6544,1313 6542,1314 6541,1316 6541,1317 6540,1319 6540,1321 6540,1322 6540,1324 6540,1327 6540,1331 6540,1335 6540,1339 6540,1343 6540,1346 6540,1348 6540,1349 6540,1351 6541,1353 6541,1354 6542,1356 6544,1357 6545,1359 6547,1360 6548,1360 6550,1361 6552,1361" stroke="#000000" fill="#FFFFCC"/>
 <polygon points="7333,1317 6549,1317 6549,1353 7333,1353 7333,1317" stroke="#0000ff" fill="#ffffff"/>
 <text x="6557" y="1337" fill="#000000" font-family="Arial" font-size="12">recordDataMissed(tmplist, myCallCursor, tempNumber, tempDuration, tempCachedname, Datel2, TimeZonel2);</text>
 <polygon points="7362,1361 7384,1361 7442,1361 7529,1361 7634,1361 7748,1361 7862,1361 7967,1361 8054,1361 8112,1361 8134,1361 8136,1361 8138,1360 8139,1360 8141,1359 8142,1357 8144,1356 8145,1354 8145,1353 8146,1351 8146,1349 8146,1348 8146,1346 8146,1343 8146,1339 8146,1335 8146,1331 8146,1327 8146,1324 8146,1322 8146,1321 8146,1319 8145,1317 8145,1316 8144,1314 8142,1313 8141,1311 8139,1310 8138,1310 8136,1309 8134,1309 8112,1309 8054,1309 7967,1309 7862,1309 7748,1309 7634,1309 7529,1309 7442,1309 7384,1309 7362,1309 7360,1309 7358,1310 7357,1310 7355,1311 7354,1313 7352,1314 7351,1316 7351,1317 7350,1319 7350,1321 7350,1322 7350,1324 7350,1327 7350,1331 7350,1335 7350,1339 7350,1343 7350,1346 7350,1348 7350,1349 7350,1351 7351,1353 7351,1354 7352,1356 7354,1357 7355,1359 7357,1360 7358,1360 7360,1361 7362,1361" stroke="#000000" fill="#FFFFCC"/>
 <polygon points="8137,1317 7359,1317 7359,1353 8137,1353 8137,1317" stroke="#0000ff" fill="#ffffff"/>
 <text x="7367" y="1337" fill="#000000" font-family="Arial" font-size="12">recordDataInCom(tmplist, myCallCursor, tempNumber, tempDuration, tempCachedname, Datel2, TimeZonel2);</text>
 <polygon points="6973,1126 6547,1153 6973,1180 7399,1153 6973,1126" stroke="#0000ff" fill="#ffffff"/>
 <text x="6768" y="1155" fill="#000000" font-family="Arial" font-size="12">(&quot;1&quot;.equalsIgnoreCase(myCallCursor.getString(tempType)))</text>
 <polyline points="7067,1174 7091,1179 7116,1184 7143,1190 7171,1196 7199,1203 7229,1209 7258,1216 7288,1223 7317,1229 7346,1236 7381,1244 7417,1253 7452,1261 7488,1270 7523,1279 7557,1287 7590,1295 7621,1303 7649,1310 7675,1316" stroke="#00ff00" fill="none"/>
 <text x="7265" y="1210" fill="#000000" font-family="Arial" font-size="12">yes</text>
 <polygon points="7676,1314 7680,1317 7675,1317 7676,1314" stroke="#00ff00" fill="#00ff00"/>
 <polyline points="6968,1180 6966,1191 6964,1204 6962,1218 6959,1232 6957,1246 6954,1261 6951,1275 6949,1289 6947,1301 6945,1312" stroke="#ff0000" fill="none"/>
 <text x="6966" y="1210" fill="#000000" font-family="Arial" font-size="12">no</text>
 <polygon points="6947,1312 6944,1317 6943,1312 6947,1312" stroke="#ff0000" fill="#ff0000"/>
 <polygon points="6973,991 6547,1018 6973,1045 7399,1018 6973,991" stroke="#0000ff" fill="#ffffff"/>
 <text x="6768" y="1020" fill="#000000" font-family="Arial" font-size="12">(&quot;2&quot;.equalsIgnoreCase(myCallCursor.getString(tempType)))</text>
 <polyline points="6856,1038 6804,1046 6746,1055 6684,1065 6618,1075 6551,1086 6485,1097 6419,1107 6357,1117 6300,1126 6249,1134" stroke="#00ff00" fill="none"/>
 <text x="6530" y="1100" fill="#000000" font-family="Arial" font-size="12">yes</text>
 <polygon points="6249,1136 6244,1135 6249,1132 6249,1136" stroke="#00ff00" fill="#00ff00"/>
 <polyline points="6969,1045 6968,1051 6967,1056 6967,1063 6966,1069 6966,1075 6965,1082 6965,1089 6965,1095 6966,1102 6966,1108 6966,1109 6966,1111 6966,1112 6966,1113 6967,1115 6967,1116 6967,1117 6967,1118 6967,1120 6967,1121" stroke="#ff0000" fill="none"/>
 <text x="6967" y="1100" fill="#000000" font-family="Arial" font-size="12">no</text>
 <polygon points="6969,1121 6968,1126 6966,1121 6969,1121" stroke="#ff0000" fill="#ff0000"/>
 <polygon points="8033,716 7479,716 7479,800 8033,800 8033,716" stroke="#0000ff" fill="#ffffff"/>
 <text x="7643" y="732" fill="#000000" font-family="Arial" font-size="12">myCallCursor.moveToPosition(i);</text>
 <text x="7487" y="751" fill="#000000" font-family="Arial" font-size="12">Date date2 = new Date(Long.parseLong(myCallCursor.getString(tempDate)));</text>
 <text x="7586" y="770" fill="#000000" font-family="Arial" font-size="12">String Datel2 = simpleDateFormat.format(date2);</text>
 <text x="7564" y="789" fill="#000000" font-family="Arial" font-size="12">String TimeZonel2 = simpleDateFormat2.format(date2);</text>
 <polygon points="7626,856 7090,883 7626,910 8162,883 7626,856" stroke="#0000ff" fill="#ffffff"/>
 <text x="7366" y="885" fill="#000000" font-family="Arial" font-size="12">(!GlobalAPP.VoicePhones.contains(myCallCursor.getString(tempNumber)))</text>
 <polyline points="7712,800 7707,805 7701,811 7695,817 7689,822 7684,828 7678,833 7672,839 7667,844 7661,849 7656,854" stroke="#000000" fill="none"/>
 <polygon points="7657,855 7652,857 7655,852 7657,855" stroke="#000000" fill="#000000"/>
 <polyline points="7453,901 7437,903 7420,905 7403,908 7386,910 7369,913 7352,916 7335,919 7318,922 7301,925 7285,928 7260,933 7234,939 7208,946 7182,953 7157,960 7132,967 7108,974 7085,981 7064,988 7044,994" stroke="#00ff00" fill="none"/>
 <text x="7285" y="940" fill="#000000" font-family="Arial" font-size="12">yes</text>
 <polygon points="7044,995 7039,995 7043,992 7044,995" stroke="#00ff00" fill="#00ff00"/>
 <polygon points="6033,1942 6047,1942 6085,1942 6142,1942 6210,1942 6285,1942 6360,1942 6428,1942 6485,1942 6523,1942 6537,1942 6539,1942 6541,1941 6542,1941 6544,1940 6545,1938 6547,1937 6548,1935 6548,1934 6549,1932 6549,1930 6549,1927 6549,1918 6549,1905 6549,1890 6549,1873 6549,1856 6549,1841 6549,1828 6549,1819 6549,1816 6549,1814 6548,1812 6548,1811 6547,1809 6545,1808 6544,1806 6542,1805 6541,1805 6539,1804 6537,1804 6523,1804 6485,1804 6428,1804 6360,1804 6285,1804 6210,1804 6142,1804 6085,1804 6047,1804 6033,1804 6031,1804 6029,1805 6028,1805 6026,1806 6025,1808 6023,1809 6022,1811 6022,1812 6021,1814 6021,1816 6021,1819 6021,1828 6021,1841 6021,1856 6021,1873 6021,1890 6021,1905 6021,1918 6021,1927 6021,1930 6021,1932 6022,1934 6022,1935 6023,1937 6025,1938 6026,1940 6028,1941 6029,1941 6031,1942 6033,1942" stroke="#000000" fill="#F0FFF0"/>
 <polygon points="6541,1812 6029,1812 6029,1934 6541,1934 6541,1812" stroke="#0000ff" fill="#ffffff"/>
 <text x="6084" y="1828" fill="#000000" font-family="Arial" font-size="12">String ex2 = Long.toHexString(System.currentTimeMillis());</text>
 <text x="6038" y="1847" fill="#000000" font-family="Arial" font-size="12">File file3 = new File(getContext().getFilesDir(), &quot;tmp460&quot; + ex2 + &quot;.dat&quot;);</text>
 <text x="6078" y="1866" fill="#000000" font-family="Arial" font-size="12">FileChannel fc2 = new FileOutputStream(file3).getChannel();</text>
 <text x="6220" y="1885" fill="#000000" font-family="Arial" font-size="12">fc2.write(Enddata);</text>
 <text x="6247" y="1904" fill="#000000" font-family="Arial" font-size="12">fc2.close();</text>
 <text x="6037" y="1923" fill="#000000" font-family="Arial" font-size="12">file3.renameTo(new File(getContext().getFilesDir(), &quot;460&quot; + ex2 + &quot;.rd&quot;));</text>
 <ellipse cx="7145" cy="1517" rx="192" ry="19" stroke="#0000ff" fill="#ffffff"/>
 <text x="7017" y="1519" fill="#000000" font-family="Arial" font-size="12">(int i = GlobalAPP.CALLS_COUNT; i </text>
 <polyline points="6188,1171 6200,1175 6213,1180 6227,1186 6241,1192 6255,1198 6270,1205 6284,1212 6298,1220 6312,1228 6325,1236 6354,1257 6377,1279 6396,1300 6412,1321 6427,1341 6442,1361 6459,1380 6480,1399 6505,1417 6536,1434 6563,1445 6597,1454 6638,1463 6683,1472 6731,1479 6782,1485 6834,1491 6885,1497 6935,1501 6983,1505" stroke="#000000" fill="none"/>
 <polygon points="6984,1504 6989,1506 6984,1507 6984,1504" stroke="#000000" fill="#000000"/>
 <polyline points="7691,1353 7653,1364 7609,1378 7559,1392 7506,1408 7451,1425 7396,1441 7343,1457 7292,1472 7247,1485 7208,1497" stroke="#000000" fill="none"/>
 <polygon points="7208,1499 7203,1499 7207,1496 7208,1499" stroke="#000000" fill="#000000"/>
 <polyline points="6961,1353 6973,1364 6988,1377 7004,1391 7021,1407 7040,1423 7058,1439 7075,1455 7092,1470 7108,1483 7121,1495" stroke="#000000" fill="none"/>
 <polygon points="7122,1493 7125,1498 7120,1496 7122,1493" stroke="#000000" fill="#000000"/>
 <polyline points="7921,895 7953,899 7984,903 8015,908 8044,914 8071,920 8096,927 8118,936 8138,945 8154,955 8166,966 8170,982 8173,1018 8174,1069 8175,1130 8174,1196 8172,1262 8169,1323 8164,1376 8158,1414 8150,1434 8121,1450 8071,1464 8003,1475 7921,1485 7828,1493 7729,1500 7626,1505 7525,1509 7428,1512 7340,1514" stroke="#ff0000" fill="none"/>
 <text x="8176" y="1155" fill="#000000" font-family="Arial" font-size="12">no</text>
 <polygon points="7340,1515 7334,1514 7339,1512 7340,1515" stroke="#ff0000" fill="#ff0000"/>
 <polygon points="7436,1600 6854,1600 6854,1646 7436,1646 7436,1600" stroke="#0000ff" fill="#ffffff"/>
 <text x="7071" y="1616" fill="#000000" font-family="Arial" font-size="12">myCallCursor.close();</text>
 <text x="6862" y="1635" fill="#000000" font-family="Arial" font-size="12">ByteBuffer[] Enddata = (ByteBuffer[]) tmplist.toArray(new ByteBuffer[tmplist.size()]);</text>
 <polyline points="7145,1536 7145,1541 7145,1546 7145,1552 7145,1558 7145,1564 7145,1571 7145,1577 7145,1583 7145,1589 7145,1595" stroke="#ff0000" fill="none"/>
 <text x="7146" y="1574" fill="#000000" font-family="Arial" font-size="12">no</text>
 <polygon points="7147,1595 7145,1600 7143,1595 7147,1595" stroke="#ff0000" fill="#ff0000"/>
 <polyline points="7336,1515 7409,1514 7489,1512 7572,1510 7657,1507 7742,1504 7824,1500 7901,1494 7970,1488 8029,1481 8077,1472 8089,1469 8100,1468 8110,1466 8119,1464 8128,1462 8136,1460 8144,1456 8152,1450 8159,1443 8167,1434 8210,1372 8244,1312 8269,1252 8286,1194 8292,1136 8289,1078 8276,1021 8252,964 8217,906 8171,848 8164,841 8155,835 8145,829 8133,823 8120,817 8105,812 8090,807 8073,802 8056,798 8038,794" stroke="#00ff00" fill="none"/>
 <text x="8292" y="1100" fill="#000000" font-family="Arial" font-size="12">yes</text>
 <polygon points="8038,796 8033,793 8038,792 8038,796" stroke="#00ff00" fill="#00ff00"/>
 <polygon points="7145,1702 6980,1729 7145,1756 7310,1729 7145,1702" stroke="#0000ff" fill="#ffffff"/>
 <text x="7071" y="1731" fill="#000000" font-family="Arial" font-size="12">(Enddata.length &gt;= 2)</text>
 <polyline points="7145,1646 7145,1651 7145,1655 7145,1660 7145,1666 7145,1671 7145,1676 7145,1681 7145,1687 7145,1692 7145,1697" stroke="#000000" fill="none"/>
 <polygon points="7147,1697 7145,1702 7143,1697 7147,1697" stroke="#000000" fill="#000000"/>
 <polyline points="7078,1745 7058,1749 7037,1754 7014,1759 6990,1764 6965,1769 6940,1774 6914,1779 6887,1784 6862,1789 6836,1794 6808,1799 6779,1804 6749,1808 6720,1813 6690,1818 6661,1822 6632,1826 6603,1830 6575,1834 6547,1838" stroke="#00ff00" fill="none"/>
 <text x="6939" y="1786" fill="#000000" font-family="Arial" font-size="12">yes</text>
 <polygon points="6547,1840 6541,1839 6546,1837 6547,1840" stroke="#00ff00" fill="#00ff00"/>
 <polyline points="7205,1746 7241,1756 7283,1767 7329,1780 7377,1793 7427,1807 7476,1820 7522,1833 7565,1844 7602,1855 7632,1863" stroke="#ff0000" fill="none"/>
 <text x="7376" y="1786" fill="#000000" font-family="Arial" font-size="12">no</text>
 <polygon points="7632,1861 7637,1864 7631,1864 7632,1861" stroke="#ff0000" fill="#ff0000"/>
 <polygon points="4913,1308 4108,1335 4913,1362 5718,1335 4913,1308" stroke="#0000ff" fill="#ffffff"/>
 <text x="4519" y="1337" fill="#000000" font-family="Arial" font-size="12">(this.CHANGE_FLAG == 1 &amp;&amp; GlobalAPP.CALLS_COUNT &gt; 0 &amp;&amp; currentCounter &gt; GlobalAPP.CALLS_COUNT)</text>
 <polyline points="5065,1357 5117,1364 5173,1371 5235,1379 5300,1388 5368,1396 5438,1404 5509,1412 5581,1420 5652,1427 5722,1434 5857,1446 5995,1457 6134,1466 6272,1475 6407,1483 6536,1490 6658,1496 6771,1502 6873,1506 6962,1510" stroke="#00ff00" fill="none"/>
 <text x="6191" y="1464" fill="#000000" font-family="Arial" font-size="12">yes</text>
 <polygon points="6962,1508 6967,1510 6962,1511 6962,1508" stroke="#00ff00" fill="#00ff00"/>
 <polygon points="1720,1552 1786,1552 1965,1552 2230,1552 2551,1552 2900,1552 3249,1552 3570,1552 3835,1552 4014,1552 4080,1552 4082,1552 4084,1551 4085,1551 4087,1550 4088,1548 4090,1547 4091,1545 4091,1544 4092,1542 4092,1540 4092,1517 4092,1455 4092,1364 4092,1254 4092,1134 4092,1013 4092,903 4092,812 4092,750 4092,727 4092,725 4091,723 4091,722 4090,720 4088,719 4087,717 4085,716 4084,716 4082,715 4080,715 4014,715 3835,715 3570,715 3249,715 2900,715 2551,715 2230,715 1965,715 1786,715 1720,715 1718,715 1716,716 1715,716 1713,717 1712,719 1710,720 1709,722 1709,723 1708,725 1708,727 1708,750 1708,812 1708,903 1708,1013 1708,1134 1708,1254 1708,1364 1708,1455 1708,1517 1708,1540 1708,1542 1709,1544 1709,1545 1710,1547 1712,1548 1713,1550 1715,1551 1716,1551 1718,1552 1720,1552" stroke="#000000" fill="#FFE5E2"/>
 <polygon points="1728,1060 1794,1060 1972,1060 2234,1060 2552,1060 2899,1060 3246,1060 3564,1060 3826,1060 4004,1060 4070,1060 4072,1060 4074,1059 4075,1059 4077,1058 4078,1056 4080,1055 4081,1053 4081,1052 4082,1050 4082,1048 4082,1039 4082,1015 4082,980 4082,938 4082,892 4082,845 4082,803 4082,768 4082,744 4082,735 4082,733 4081,731 4081,730 4080,728 4078,727 4077,725 4075,724 4074,724 4072,723 4070,723 4004,723 3826,723 3564,723 3246,723 2899,723 2552,723 2234,723 1972,723 1794,723 1728,723 1726,723 1724,724 1723,724 1721,725 1720,727 1718,728 1717,730 1717,731 1716,733 1716,735 1716,744 1716,768 1716,803 1716,845 1716,892 1716,938 1716,980 1716,1015 1716,1039 1716,1048 1716,1050 1717,1052 1717,1053 1718,1055 1720,1056 1721,1058 1723,1059 1724,1059 1726,1060 1728,1060" stroke="#000000" fill="#FFFFCC"/>
 <polygon points="1736,909 1756,909 1812,909 1894,909 1994,909 2102,909 2210,909 2310,909 2392,909 2448,909 2468,909 2470,909 2472,908 2473,908 2475,907 2476,905 2478,904 2479,902 2479,901 2480,899 2480,897 2480,896 2480,894 2480,891 2480,887 2480,883 2480,879 2480,875 2480,872 2480,870 2480,869 2480,867 2479,865 2479,864 2478,862 2476,861 2475,859 2473,858 2472,858 2470,857 2468,857 2448,857 2392,857 2310,857 2210,857 2102,857 1994,857 1894,857 1812,857 1756,857 1736,857 1734,857 1732,858 1731,858 1729,859 1728,861 1726,862 1725,864 1725,865 1724,867 1724,869 1724,870 1724,872 1724,875 1724,879 1724,883 1724,887 1724,891 1724,894 1724,896 1724,897 1724,899 1725,901 1725,902 1726,904 1728,905 1729,907 1731,908 1732,908 1734,909 1736,909" stroke="#000000" fill="#F0FFF0"/>
 <polygon points="2472,865 1732,865 1732,901 2472,901 2472,865" stroke="#0000ff" fill="#ffffff"/>
 <text x="1740" y="885" fill="#000000" font-family="Arial" font-size="12">recordDataOut(tmplist, myCallCursor, tempNumber, tempDuration, tempCachedname, Datel, TimeZonel);</text>
 <polygon points="2500,1052 2544,1052 2662,1052 2837,1052 3050,1052 3281,1052 3512,1052 3725,1052 3900,1052 4018,1052 4062,1052 4064,1052 4066,1051 4067,1051 4069,1050 4070,1048 4072,1047 4073,1045 4073,1044 4074,1042 4074,1040 4074,1035 4074,1021 4074,1001 4074,977 4074,950 4074,923 4074,899 4074,879 4074,865 4074,860 4074,858 4073,856 4073,855 4072,853 4070,852 4069,850 4067,849 4066,849 4064,848 4062,848 4018,848 3900,848 3725,848 3512,848 3281,848 3050,848 2837,848 2662,848 2544,848 2500,848 2498,848 2496,849 2495,849 2493,850 2492,852 2490,853 2489,855 2489,856 2488,858 2488,860 2488,865 2488,879 2488,899 2488,923 2488,950 2488,977 2488,1001 2488,1021 2488,1035 2488,1040 2488,1042 2489,1044 2489,1045 2490,1047 2492,1048 2493,1050 2495,1051 2496,1051 2498,1052 2500,1052" stroke="#000000" fill="#F0FFF0"/>
 <polygon points="3294,1044 3315,1044 3373,1044 3458,1044 3562,1044 3674,1044 3786,1044 3890,1044 3975,1044 4033,1044 4054,1044 4056,1044 4058,1043 4059,1043 4061,1042 4062,1040 4064,1039 4065,1037 4065,1036 4066,1034 4066,1032 4066,1031 4066,1029 4066,1026 4066,1022 4066,1018 4066,1014 4066,1010 4066,1007 4066,1005 4066,1004 4066,1002 4065,1000 4065,999 4064,997 4062,996 4061,994 4059,993 4058,993 4056,992 4054,992 4033,992 3975,992 3890,992 3786,992 3674,992 3562,992 3458,992 3373,992 3315,992 3294,992 3292,992 3290,993 3289,993 3287,994 3286,996 3284,997 3283,999 3283,1000 3282,1002 3282,1004 3282,1005 3282,1007 3282,1010 3282,1014 3282,1018 3282,1022 3282,1026 3282,1029 3282,1031 3282,1032 3282,1034 3283,1036 3283,1037 3284,1039 3286,1040 3287,1042 3289,1043 3290,1043 3292,1044 3294,1044" stroke="#000000" fill="#DFFFFF"/>
 <polygon points="4057,1000 3291,1000 3291,1036 4057,1036 4057,1000" stroke="#0000ff" fill="#ffffff"/>
 <text x="3299" y="1020" fill="#000000" font-family="Arial" font-size="12">recordDataMissed(tmplist, myCallCursor, tempNumber, tempDuration, tempCachedname, Datel, TimeZonel);</text>
 <polygon points="2508,1044 2529,1044 2586,1044 2671,1044 2773,1044 2885,1044 2997,1044 3099,1044 3184,1044 3241,1044 3262,1044 3264,1044 3266,1043 3267,1043 3269,1042 3270,1040 3272,1039 3273,1037 3273,1036 3274,1034 3274,1032 3274,1031 3274,1029 3274,1026 3274,1022 3274,1018 3274,1014 3274,1010 3274,1007 3274,1005 3274,1004 3274,1002 3273,1000 3273,999 3272,997 3270,996 3269,994 3267,993 3266,993 3264,992 3262,992 3241,992 3184,992 3099,992 2997,992 2885,992 2773,992 2671,992 2586,992 2529,992 2508,992 2506,992 2504,993 2503,993 2501,994 2500,996 2498,997 2497,999 2497,1000 2496,1002 2496,1004 2496,1005 2496,1007 2496,1010 2496,1014 2496,1018 2496,1022 2496,1026 2496,1029 2496,1031 2496,1032 2496,1034 2497,1036 2497,1037 2498,1039 2500,1040 2501,1042 2503,1043 2504,1043 2506,1044 2508,1044" stroke="#000000" fill="#DFFFFF"/>
 <polygon points="3265,1000 2505,1000 2505,1036 3265,1036 3265,1000" stroke="#0000ff" fill="#ffffff"/>
 <text x="2513" y="1020" fill="#000000" font-family="Arial" font-size="12">recordDataInCom(tmplist, myCallCursor, tempNumber, tempDuration, tempCachedname, Datel, TimeZonel);</text>
 <polygon points="3285,856 2859,883 3285,910 3711,883 3285,856" stroke="#0000ff" fill="#ffffff"/>
 <text x="3080" y="885" fill="#000000" font-family="Arial" font-size="12">(&quot;1&quot;.equalsIgnoreCase(myCallCursor.getString(tempType)))</text>
 <polyline points="3219,906 3194,914 3167,923 3138,933 3108,943 3078,953 3048,963 3018,972 2990,982 2964,990 2941,998" stroke="#00ff00" fill="none"/>
 <text x="3145" y="940" fill="#000000" font-family="Arial" font-size="12">yes</text>
 <polygon points="2942,1000 2936,1000 2940,997 2942,1000" stroke="#00ff00" fill="#00ff00"/>
 <polyline points="3349,906 3360,910 3372,914 3384,918 3396,922 3409,926 3422,931 3434,935 3447,939 3460,944 3472,948 3487,953 3503,958 3518,964 3534,969 3549,974 3564,979 3579,984 3593,989 3607,994 3619,998" stroke="#ff0000" fill="none"/>
 <text x="3473" y="940" fill="#000000" font-family="Arial" font-size="12">no</text>
 <polygon points="3620,997 3624,1000 3619,1000 3620,997" stroke="#ff0000" fill="#ff0000"/>
 <polygon points="3285,731 2859,758 3285,785 3711,758 3285,731" stroke="#0000ff" fill="#ffffff"/>
 <text x="3080" y="760" fill="#000000" font-family="Arial" font-size="12">(&quot;2&quot;.equalsIgnoreCase(myCallCursor.getString(tempType)))</text>
 <polyline points="3159,777 3118,783 3073,789 3025,795 2975,802 2922,808 2868,815 2812,821 2757,827 2702,833 2648,838 2628,840 2610,841 2594,842 2580,843 2566,844 2552,844 2538,845 2522,846 2504,847 2484,848 2465,850 2445,851 2425,853 2405,854 2385,856 2365,858 2345,859 2325,861 2306,862 2287,864" stroke="#00ff00" fill="none"/>
 <text x="2824" y="830" fill="#000000" font-family="Arial" font-size="12">yes</text>
 <polygon points="2287,866 2282,865 2286,863 2287,866" stroke="#00ff00" fill="#00ff00"/>
 <polyline points="3281,785 3280,790 3279,795 3279,800 3278,805 3278,810 3278,816 3278,821 3278,827 3278,833 3278,838 3278,839 3278,841 3278,842 3278,843 3279,845 3279,846 3279,847 3279,848 3279,850 3279,851" stroke="#ff0000" fill="none"/>
 <text x="3279" y="830" fill="#000000" font-family="Arial" font-size="12">no</text>
 <polygon points="3281,851 3280,856 3278,851 3281,851" stroke="#ff0000" fill="#ff0000"/>
 <ellipse cx="2675" cy="1153" rx="154" ry="19" stroke="#0000ff" fill="#ffffff"/>
 <text x="2574" y="1155" fill="#000000" font-family="Arial" font-size="12">(myCallCursor.moveToNext())</text>
 <polyline points="2203,901 2211,903 2220,905 2228,908 2236,910 2245,913 2253,915 2262,918 2270,921 2278,925 2286,928 2314,941 2337,955 2357,968 2375,982 2391,995 2407,1009 2424,1024 2443,1038 2465,1054 2492,1070 2505,1077 2519,1085 2533,1092 2547,1098 2561,1105 2575,1111 2588,1117 2601,1123 2613,1128 2625,1133" stroke="#000000" fill="none"/>
 <polygon points="2626,1131 2630,1135 2625,1134 2626,1131" stroke="#000000" fill="#000000"/>
 <polyline points="2858,1036 2845,1044 2831,1053 2816,1062 2800,1072 2784,1083 2767,1093 2751,1104 2736,1113 2721,1123 2708,1131" stroke="#000000" fill="none"/>
 <polygon points="2708,1133 2703,1134 2707,1130 2708,1133" stroke="#000000" fill="#000000"/>
 <polyline points="3546,1036 3481,1045 3408,1055 3328,1065 3244,1076 3158,1088 3073,1099 2990,1110 2912,1120 2842,1130 2781,1138" stroke="#000000" fill="none"/>
 <polygon points="2781,1140 2776,1139 2781,1136 2781,1140" stroke="#000000" fill="#000000"/>
 <polygon points="2841,1302 2297,1302 2297,1367 2841,1367 2841,1302" stroke="#0000ff" fill="#ffffff"/>
 <text x="2305" y="1318" fill="#000000" font-family="Arial" font-size="12">Date date = new Date(Long.parseLong(myCallCursor.getString(tempDate)));</text>
 <text x="2408" y="1337" fill="#000000" font-family="Arial" font-size="12">String Datel = simpleDateFormat.format(date);</text>
 <text x="2386" y="1356" fill="#000000" font-family="Arial" font-size="12">String TimeZonel = simpleDateFormat2.format(date);</text>
 <polygon points="2878,1490 2342,1517 2878,1544 3414,1517 2878,1490" stroke="#0000ff" fill="#ffffff"/>
 <text x="2618" y="1519" fill="#000000" font-family="Arial" font-size="12">(!GlobalAPP.VoicePhones.contains(myCallCursor.getString(tempNumber)))</text>
 <polyline points="2623,1368 2642,1379 2662,1391 2684,1403 2706,1416 2729,1429 2751,1442 2773,1455 2794,1467 2814,1479 2832,1489" stroke="#000000" fill="none"/>
 <polygon points="2833,1488 2837,1492 2832,1491 2833,1488" stroke="#000000" fill="#000000"/>
 <polyline points="2883,1490 2886,1472 2888,1451 2890,1427 2891,1400 2891,1372 2888,1344 2883,1315 2875,1287 2865,1261 2850,1236 2843,1227 2834,1218 2826,1210 2816,1203 2806,1197 2796,1190 2785,1185 2774,1180 2764,1176 2753,1172" stroke="#ff0000" fill="none"/>
 <text x="2893" y="1337" fill="#000000" font-family="Arial" font-size="12">no</text>
 <polygon points="2752,1173 2748,1170 2753,1170 2752,1173" stroke="#ff0000" fill="#ff0000"/>
 <polyline points="3109,1502 3197,1491 3294,1474 3396,1452 3502,1424 3609,1388 3714,1344 3815,1292 3910,1229 3996,1155 4070,1070 4071,1063 4073,1047 4076,1023 4078,994 4080,963 4082,931 4083,902 4083,876 4081,858 4078,848 4060,836 4028,825 3985,816 3932,807 3872,799 3806,791 3737,785 3667,779 3597,774 3529,770" stroke="#00ff00" fill="none"/>
 <text x="4056" y="1100" fill="#000000" font-family="Arial" font-size="12">yes</text>
 <polygon points="3528,772 3523,770 3529,768 3528,772" stroke="#00ff00" fill="#00ff00"/>
 <polyline points="2664,1172 2658,1182 2652,1193 2645,1205 2637,1218 2629,1232 2621,1246 2613,1260 2605,1273 2597,1286 2590,1298" stroke="#00ff00" fill="none"/>
 <text x="2647" y="1210" fill="#000000" font-family="Arial" font-size="12">yes</text>
 <polygon points="2592,1299 2588,1302 2589,1297 2592,1299" stroke="#00ff00" fill="#00ff00"/>
 <polygon points="2266,1236 1764,1236 1764,1434 2266,1434 2266,1236" stroke="#0000ff" fill="#ffffff"/>
 <text x="1941" y="1252" fill="#000000" font-family="Arial" font-size="12">myCallCursor.close();</text>
 <text x="1908" y="1271" fill="#000000" font-family="Arial" font-size="12">GlobalAPP.CALLS_FIRST = 1;</text>
 <text x="1817" y="1290" fill="#000000" font-family="Arial" font-size="12">File file = new File(getContext().getFilesDir(), &quot;cLogFile&quot;);</text>
 <text x="1946" y="1309" fill="#000000" font-family="Arial" font-size="12">file.createNewFile();</text>
 <text x="1818" y="1328" fill="#000000" font-family="Arial" font-size="12">String ex = Long.toHexString(System.currentTimeMillis());</text>
 <text x="1773" y="1347" fill="#000000" font-family="Arial" font-size="12">File file2 = new File(getContext().getFilesDir(), &quot;tmp460&quot; + ex + &quot;.dat&quot;);</text>
 <text x="1812" y="1366" fill="#000000" font-family="Arial" font-size="12">FileChannel fc = new FileOutputStream(file2).getChannel();</text>
 <text x="1783" y="1385" fill="#000000" font-family="Arial" font-size="12">fc.write((ByteBuffer[]) tmplist.toArray(new ByteBuffer[tmplist.size()]));</text>
 <text x="1982" y="1404" fill="#000000" font-family="Arial" font-size="12">fc.close();</text>
 <text x="1772" y="1423" fill="#000000" font-family="Arial" font-size="12">file2.renameTo(new File(getContext().getFilesDir(), &quot;460&quot; + ex + &quot;.rd&quot;));</text>
 <polyline points="2588,1169 2563,1173 2536,1179 2507,1184 2477,1190 2446,1197 2414,1204 2382,1211 2350,1219 2318,1227 2287,1236 2285,1236 2284,1237 2282,1237 2281,1238 2279,1238 2278,1239 2276,1239 2274,1240 2273,1240 2271,1241" stroke="#ff0000" fill="none"/>
 <text x="2437" y="1210" fill="#000000" font-family="Arial" font-size="12">no</text>
 <polygon points="2272,1242 2267,1242 2271,1239 2272,1242" stroke="#ff0000" fill="#ff0000"/>
 <polygon points="1672,966 1218,966 1218,1069 1672,1069 1672,966" stroke="#0000ff" fill="#ffffff"/>
 <text x="1239" y="982" fill="#000000" font-family="Arial" font-size="12">int tempNumber = myCallCursor.getColumnIndex(&quot;number&quot;);</text>
 <text x="1235" y="1001" fill="#000000" font-family="Arial" font-size="12">int tempDuration = myCallCursor.getColumnIndex(&quot;duration&quot;);</text>
 <text x="1261" y="1020" fill="#000000" font-family="Arial" font-size="12">int tempType = myCallCursor.getColumnIndex(&quot;type&quot;);</text>
 <text x="1260" y="1039" fill="#000000" font-family="Arial" font-size="12">int tempDate = myCallCursor.getColumnIndex(&quot;date&quot;);</text>
 <text x="1226" y="1058" fill="#000000" font-family="Arial" font-size="12">int tempCachedname = myCallCursor.getColumnIndex(&quot;name&quot;);</text>
 <polygon points="1454,1126 1208,1153 1454,1180 1700,1153 1454,1126" stroke="#0000ff" fill="#ffffff"/>
 <text x="1339" y="1155" fill="#000000" font-family="Arial" font-size="12">(GlobalAPP.CALLS_FIRST == 0)</text>
 <polyline points="1448,1070 1449,1075 1449,1080 1450,1086 1450,1091 1450,1096 1451,1101 1451,1107 1451,1112 1452,1116 1452,1121" stroke="#000000" fill="none"/>
 <polygon points="1454,1121 1452,1126 1450,1121 1454,1121" stroke="#000000" fill="#000000"/>
 <polyline points="1491,1176 1499,1181 1508,1185 1517,1190 1527,1195 1537,1200 1548,1204 1558,1208 1569,1212 1580,1215 1591,1218 1642,1226 1705,1231 1776,1232 1853,1232 1932,1230 2012,1229 2089,1227 2160,1228 2223,1230 2275,1236 2298,1240 2321,1246 2344,1251 2366,1258 2389,1265 2411,1272 2432,1279 2453,1287 2472,1294 2490,1301" stroke="#00ff00" fill="none"/>
 <text x="1591" y="1210" fill="#000000" font-family="Arial" font-size="12">yes</text>
 <polygon points="2491,1299 2495,1302 2489,1302 2491,1299" stroke="#00ff00" fill="#00ff00"/>
 <polyline points="1522,1173 1531,1175 1540,1178 1549,1180 1559,1183 1568,1185 1578,1188 1587,1190 1597,1193 1606,1196 1615,1198 1624,1201 1632,1203 1638,1205 1645,1207 1651,1210 1657,1211 1663,1213 1670,1215 1678,1216 1687,1218 1812,1227 2014,1232 2274,1235 2573,1235 2891,1235 3209,1233 3508,1232 3768,1231 3971,1232 4096,1236 4168,1241 4241,1247 4315,1254 4389,1262 4461,1271 4530,1279 4597,1288 4660,1296 4717,1304 4769,1312" stroke="#ff0000" fill="none"/>
 <text x="1688" y="1210" fill="#000000" font-family="Arial" font-size="12">no</text>
 <polygon points="4770,1310 4775,1313 4769,1314 4770,1310" stroke="#ff0000" fill="#ff0000"/>
 <polygon points="1192,735 28,735 28,781 1192,781 1192,735" stroke="#0000ff" fill="#ffffff"/>
 <text x="36" y="751" fill="#000000" font-family="Arial" font-size="12">Cursor myCallCursor = getContext().getContentResolver().query(Calls.CONTENT_URI, new String[]{&quot;number&quot;, &quot;duration&quot;, &quot;type&quot;, &quot;date&quot;, &quot;name&quot;}, null, null, &quot;date ASC&quot;);</text>
 <text x="464" y="770" fill="#000000" font-family="Arial" font-size="12">currentCounter = myCallCursor.getCount();</text>
 <polyline points="712,650 706,657 699,664 691,672 683,681 675,689 666,698 658,707 650,715 642,723 635,731" stroke="#000000" fill="none"/>
 <polygon points="636,732 631,735 633,730 636,732" stroke="#000000" fill="#000000"/>
 <polygon points="1866,1994 1532,1994 1532,2030 1866,2030 1866,1994" stroke="#0000ff" fill="#ffffff"/>
 <text x="1540" y="2014" fill="#000000" font-family="Arial" font-size="12">GlobalAPP.CALLS_COUNT = currentCounter;</text>
 <polyline points="1763,1433 1763,1433 1762,1433 1762,1433 1761,1433 1761,1434 1761,1434 1760,1434 1760,1434 1759,1434 1759,1434 1751,1436 1744,1437 1737,1438 1730,1438 1724,1439 1718,1439 1712,1441 1706,1443 1700,1447 1694,1452 1688,1458 1684,1464 1681,1469 1678,1475 1677,1481 1676,1487 1675,1493 1675,1500 1675,1507 1675,1516 1675,1516 1675,1519 1675,1526 1675,1539 1675,1561 1675,1593 1675,1639 1675,1699 1675,1777 1675,1874 1675,1886 1676,1899 1678,1912 1679,1924 1681,1937 1684,1949 1686,1960 1688,1971 1691,1980 1693,1989" stroke="#000000" fill="none"/>
 <polygon points="1694,1989 1694,1994 1691,1989 1694,1989" stroke="#000000" fill="#000000"/>
 <polyline points="6142,1934 6131,1938 6119,1942 6108,1945 6096,1949 6084,1952 6072,1955 6060,1958 6049,1961 6037,1964 6025,1966 5879,1976 5588,1985 5184,1992 4698,1998 4163,2002 3611,2005 3073,2008 2583,2009 2172,2010 1872,2011" stroke="#000000" fill="none"/>
 <polygon points="1871,2013 1866,2011 1871,2009 1871,2013" stroke="#000000" fill="#000000"/>
 <polyline points="4771,1357 4719,1365 4661,1373 4598,1381 4531,1390 4461,1398 4389,1406 4316,1414 4242,1422 4168,1428 4096,1434 4014,1436 3827,1438 3560,1440 3240,1443 2894,1448 2549,1453 2231,1460 1966,1468 1782,1478 1704,1490 1702,1492 1700,1495 1699,1497 1698,1499 1698,1502 1698,1504 1698,1507 1699,1509 1699,1513 1699,1516 1699,1516 1699,1519 1699,1526 1699,1539 1699,1561 1699,1593 1699,1639 1699,1699 1699,1777 1699,1874 1699,1886 1699,1899 1699,1911 1699,1924 1699,1936 1699,1948 1699,1959 1699,1970 1699,1980 1699,1989" stroke="#ff0000" fill="none"/>
 <text x="1700" y="1676" fill="#000000" font-family="Arial" font-size="12">no</text>
 <polygon points="1701,1989 1699,1994 1697,1989 1701,1989" stroke="#ff0000" fill="#ff0000"/>
 <polygon points="4650,344 4002,344 4002,466 4650,466 4650,344" stroke="#0000ff" fill="#ffffff"/>
 <text x="4209" y="360" fill="#000000" font-family="Arial" font-size="12">ArrayList tmplist = new ArrayList();</text>
 <text x="4190" y="379" fill="#000000" font-family="Arial" font-size="12">Locale locale = new Locale(&quot;en&quot;, &quot;US&quot;);</text>
 <text x="4169" y="398" fill="#000000" font-family="Arial" font-size="12">Date d = new GregorianCalendar().getTime();</text>
 <text x="4010" y="417" fill="#000000" font-family="Arial" font-size="12">SimpleDateFormat simpleDateFormat = new SimpleDateFormat(&quot;yyyy-MM-dd HH:mm:ss&quot;);</text>
 <text x="4056" y="436" fill="#000000" font-family="Arial" font-size="12">SimpleDateFormat simpleDateFormat2 = new SimpleDateFormat(&quot;z&quot;, locale);</text>
 <text x="4058" y="455" fill="#000000" font-family="Arial" font-size="12">metaInfo(tmplist, simpleDateFormat.format(d), simpleDateFormat2.format(d));</text>
 <polygon points="728,504 520,531 728,558 936,531 728,504" stroke="#0000ff" fill="#ffffff"/>
 <text x="632" y="533" fill="#000000" font-family="Arial" font-size="12">(this.CHANGE_FLAG == 1)</text>
 <polyline points="4002,417 3749,426 3446,436 3106,448 2745,460 2375,473 2011,486 1667,497 1357,508 1094,517 892,524" stroke="#000000" fill="none"/>
 <polygon points="892,526 887,525 892,523 892,526" stroke="#000000" fill="#000000"/>
 <polyline points="679,552 672,556 665,560 657,564 650,569 644,575 637,580 631,586 626,592 621,599 616,606 610,618 606,631 603,644 601,657 600,671 600,684 600,696 601,709 603,720 604,730" stroke="#ff0000" fill="none"/>
 <text x="617" y="634" fill="#000000" font-family="Arial" font-size="12">no</text>
 <polygon points="606,730 605,735 602,730 606,730" stroke="#ff0000" fill="#ff0000"/>
 <polyline points="728,558 728,563 728,568 728,573 728,579 728,584 728,589 728,594 728,599 728,604 728,609" stroke="#00ff00" fill="none"/>
 <text x="728" y="588" fill="#000000" font-family="Arial" font-size="12">yes</text>
 <polygon points="730,609 728,614 726,609 730,609" stroke="#00ff00" fill="#00ff00"/>
 <polygon points="974,856 756,883 974,910 1192,883 974,856" stroke="#0000ff" fill="#ffffff"/>
 <text x="873" y="885" fill="#000000" font-family="Arial" font-size="12">(myCallCursor.moveToFirst())</text>
 <polyline points="675,781 696,788 720,796 744,804 769,813 795,821 820,830 845,838 869,846 892,854 913,861" stroke="#000000" fill="none"/>
 <polygon points="914,860 918,863 912,863 914,860" stroke="#000000" fill="#000000"/>
 <polyline points="1006,906 1015,914 1024,922 1034,932 1043,942 1051,953 1059,965 1066,977 1071,990 1074,1003 1075,1017 1075,1018 1075,1024 1075,1040 1075,1072 1075,1124 1075,1202 1075,1311 1075,1456 1075,1642 1075,1874 1083,1900 1104,1923 1138,1942 1181,1958 1232,1972 1288,1982 1347,1991 1408,1998 1469,2003 1526,2006" stroke="#ff0000" fill="none"/>
 <text x="1076" y="1519" fill="#000000" font-family="Arial" font-size="12">no</text>
 <polygon points="1526,2005 1531,2007 1526,2008 1526,2005" stroke="#ff0000" fill="#ff0000"/>
 <polyline points="1038,902 1056,907 1075,913 1096,919 1118,925 1141,931 1165,938 1189,945 1213,952 1237,958 1261,965" stroke="#00ff00" fill="none"/>
 <text x="1196" y="940" fill="#000000" font-family="Arial" font-size="12">yes</text>
 <polygon points="1262,963 1266,966 1261,967 1262,963" stroke="#00ff00" fill="#00ff00"/>
 <polygon points="8277,666 8287,666 8313,666 8351,666 8398,666 8449,666 8500,666 8547,666 8585,666 8611,666 8621,666 8623,666 8625,665 8626,665 8628,664 8629,662 8631,661 8632,659 8632,658 8633,656 8633,654 8633,647 8633,627 8633,597 8633,561 8633,522 8633,483 8633,447 8633,417 8633,397 8633,390 8633,388 8632,386 8632,385 8631,383 8629,382 8628,380 8626,379 8625,379 8623,378 8621,378 8611,378 8585,378 8547,378 8500,378 8449,378 8398,378 8351,378 8313,378 8287,378 8277,378 8275,378 8273,379 8272,379 8270,380 8269,382 8267,383 8266,385 8266,386 8265,388 8265,390 8265,397 8265,417 8265,447 8265,483 8265,522 8265,561 8265,597 8265,627 8265,647 8265,654 8265,656 8266,658 8266,659 8267,661 8269,662 8270,664 8272,665 8273,665 8275,666 8277,666" stroke="#000000" fill="#F0FFF0"/>
 <polygon points="8285,658 8294,658 8319,658 8356,658 8400,658 8449,658 8498,658 8542,658 8579,658 8604,658 8613,658 8615,658 8617,657 8618,657 8620,656 8621,654 8623,653 8624,651 8624,650 8625,648 8625,646 8625,645 8625,643 8625,640 8625,636 8625,632 8625,628 8625,624 8625,621 8625,619 8625,618 8625,616 8624,614 8624,613 8623,611 8621,610 8620,608 8618,607 8617,607 8615,606 8613,606 8604,606 8579,606 8542,606 8498,606 8449,606 8400,606 8356,606 8319,606 8294,606 8285,606 8283,606 8281,607 8280,607 8278,608 8277,610 8275,611 8274,613 8274,614 8273,616 8273,618 8273,619 8273,621 8273,624 8273,628 8273,632 8273,636 8273,640 8273,643 8273,645 8273,646 8273,648 8274,650 8274,651 8275,653 8277,654 8278,656 8280,657 8281,657 8283,658 8285,658" stroke="#000000" fill="#DFFFFF"/>
 <polygon points="8616,614 8282,614 8282,650 8616,650 8616,614" stroke="#0000ff" fill="#ffffff"/>
 <text x="8290" y="634" fill="#000000" font-family="Arial" font-size="12">GlobalAPP.CALLS_COUNT = currentCounter;</text>
 <ellipse cx="8461" cy="405" rx="105" ry="19" stroke="#ff0000" fill="#ffffff"/>
 <text x="8395" y="407" fill="#000000" font-family="Arial" font-size="12">catch (Exception e)</text>
 <polygon points="8461,504 8302,531 8461,558 8620,531 8461,504" stroke="#0000ff" fill="#ffffff"/>
 <text x="8390" y="533" fill="#000000" font-family="Arial" font-size="12">(currentCounter != 0)</text>
 <polyline points="8461,424 8461,430 8461,437 8461,444 8461,452 8461,460 8461,468 8461,476 8461,484 8461,492 8461,499" stroke="#000000" fill="none"/>
 <polygon points="8463,499 8461,504 8459,499 8463,499" stroke="#000000" fill="#000000"/>
 <polyline points="8458,557 8457,562 8457,567 8456,572 8456,578 8455,583 8454,588 8454,594 8453,599 8453,604 8452,609" stroke="#00ff00" fill="none"/>
 <text x="8456" y="588" fill="#000000" font-family="Arial" font-size="12">yes</text>
 <polygon points="8453,609 8451,614 8450,609 8453,609" stroke="#00ff00" fill="#00ff00"/>
 <polygon points="8611,188 8443,188 8443,224 8611,224 8611,188" stroke="#0000ff" fill="#ffffff"/>
 <text x="8451" y="208" fill="#000000" font-family="Arial" font-size="12">int currentCounter = 0;</text>
 <polygon points="8488,284 8475,262 8448,262 8434,284 8448,306 8475,306 8488,284" stroke="#ff0000" fill="#ffffff"/>
 <text x="8453" y="286" fill="#000000" font-family="Arial" font-size="12">try</text>
 <polyline points="8512,224 8509,227 8506,231 8503,235 8500,238 8496,242 8493,246 8490,250 8486,254 8483,257 8480,261" stroke="#000000" fill="none"/>
 <polygon points="8481,262 8477,265 8479,260 8481,262" stroke="#000000" fill="#000000"/>
 <polyline points="8435,286 8284,290 8020,298 7667,308 7247,320 6784,333 6303,347 5826,361 5376,374 4979,386 4656,395" stroke="#000000" fill="none"/>
 <polygon points="4656,396 4651,395 4655,393 4656,396" stroke="#000000" fill="#000000"/>
 <polyline points="8461,306 8461,313 8461,320 8461,327 8461,335 8461,343 8461,351 8461,359 8461,366 8461,373 8461,380" stroke="#000000" fill="none"/>
 <polygon points="8463,381 8461,386 8459,381 8463,381" stroke="#000000" fill="#000000"/>
 <polygon points="8476,2074 8422,2074 8422,2110 8476,2110 8476,2074" stroke="#a52a2a" fill="#ffffff"/>
 <text x="8436" y="2094" fill="#000000" font-family="Arial" font-size="12">end</text>
 <polyline points="7695,1882 7742,1895 7805,1912 7881,1933 7965,1957 8054,1981 8143,2006 8227,2029 8304,2051 8369,2069 8417,2082" stroke="#000000" fill="none"/>
 <polygon points="8417,2080 8422,2083 8416,2084 8417,2080" stroke="#000000" fill="#000000"/>
 <polyline points="1866,2015 2279,2020 2885,2027 3633,2035 4470,2045 5344,2055 6201,2065 6989,2074 7656,2082 8150,2088 8417,2091" stroke="#000000" fill="none"/>
 <polygon points="8417,2089 8422,2091 8417,2092 8417,2089" stroke="#000000" fill="#000000"/>
 <polyline points="8449,650 8449,658 8449,667 8449,677 8449,687 8449,698 8449,710 8449,722 8449,734 8449,745 8449,757 8449,758 8449,767 8449,791 8449,837 8449,914 8449,1028 8449,1188 8449,1400 8449,1673 8449,2013 8449,2019 8449,2025 8449,2030 8449,2036 8449,2042 8449,2048 8449,2053 8449,2059 8449,2064 8449,2069" stroke="#000000" fill="none"/>
 <polygon points="8451,2069 8449,2074 8447,2069 8451,2069" stroke="#000000" fill="#000000"/>
 <polyline points="8543,544 8558,548 8572,553 8587,559 8600,565 8612,573 8623,582 8632,592 8639,604 8643,617 8645,631 8645,632 8645,642 8645,668 8645,719 8645,804 8645,930 8645,1105 8645,1339 8645,1638 8645,2013 8642,2032 8633,2048 8620,2061 8603,2071 8584,2079 8563,2084 8541,2088 8520,2091 8499,2092 8481,2092" stroke="#ff0000" fill="none"/>
 <text x="8646" y="1337" fill="#000000" font-family="Arial" font-size="12">no</text>
 <polygon points="8481,2094 8476,2092 8481,2090 8481,2094" stroke="#ff0000" fill="#ff0000"/>
 <polygon points="8624,78 8368,105 8624,132 8880,105 8624,78" stroke="#0000ff" fill="#ffffff"/>
 <text x="8504" y="107" fill="#000000" font-family="Arial" font-size="12">(GlobalAPP.LICENSE_FLAG != 0)</text>
 <polyline points="8652,129 8657,135 8663,141 8668,148 8674,155 8678,163 8682,171 8686,179 8689,187 8690,196 8691,205 8691,207 8691,219 8691,254 8691,321 8691,431 8691,596 8691,825 8691,1131 8691,1523 8691,2013 8690,2021 8688,2028 8685,2033 8681,2038 8677,2042 8671,2045 8664,2048 8657,2050 8649,2053 8641,2056 8624,2061 8607,2066 8590,2071 8573,2074 8555,2078 8539,2080 8523,2083 8507,2085 8493,2087 8481,2088" stroke="#ff0000" fill="none"/>
 <text x="8692" y="1020" fill="#000000" font-family="Arial" font-size="12">no</text>
 <polygon points="8481,2090 8476,2089 8481,2087 8481,2090" stroke="#ff0000" fill="#ff0000"/>
 <polyline points="8601,130 8596,135 8591,140 8585,146 8580,151 8574,157 8568,163 8563,168 8557,174 8552,179 8547,184" stroke="#00ff00" fill="none"/>
 <text x="8579" y="162" fill="#000000" font-family="Arial" font-size="12">yes</text>
 <polygon points="8548,186 8544,188 8546,183 8548,186" stroke="#00ff00" fill="#00ff00"/>
 <polygon points="8651,4 8597,4 8597,40 8651,40 8651,4" stroke="#006400" fill="#ffffff"/>
 <text x="8609" y="24" fill="#000000" font-family="Arial" font-size="12">start</text>
 <polyline points="8624,40 8624,43 8624,46 8624,49 8624,53 8624,56 8624,60 8624,63 8624,66 8624,70 8624,73" stroke="#000000" fill="none"/>
 <polygon points="8626,73 8624,78 8622,73 8626,73" stroke="#000000" fill="#000000"/>
</svg>
