<?xml version="1.0"?>
<svg width="6685" height="2277" xmlns="http://www.w3.org/2000/svg" version="1.1">
 <polygon points="4,2274 4,4 6682,4 6682,2274 4,2274" stroke="#ffffff" fill="#ffffff"/>
 <polygon points="24,2209 200,2209 677,2209 1379,2209 2233,2209 3162,2209 4090,2209 4944,2209 5646,2209 6123,2209 6299,2209 6301,2209 6303,2208 6304,2208 6306,2207 6307,2205 6309,2204 6310,2202 6310,2201 6311,2199 6311,2197 6311,2141 6311,1988 6311,1764 6311,1491 6311,1195 6311,898 6311,625 6311,401 6311,248 6311,192 6311,190 6310,188 6310,187 6309,185 6307,184 6306,182 6304,181 6303,181 6301,180 6299,180 6123,180 5646,180 4944,180 4090,180 3162,180 2233,180 1379,180 677,180 200,180 24,180 22,180 20,181 19,181 17,182 16,184 14,185 13,187 13,188 12,190 12,192 12,248 12,401 12,625 12,898 12,1195 12,1491 12,1764 12,1988 12,2141 12,2197 12,2199 13,2201 13,2202 14,2204 16,2205 17,2207 19,2208 20,2208 22,2209 24,2209" stroke="#000000" fill="#FFFFCC"/>
 <polygon points="32,2201 201,2201 658,2201 1333,2201 2151,2201 3043,2201 3934,2201 4752,2201 5427,2201 5884,2201 6053,2201 6055,2201 6057,2200 6058,2200 6060,2199 6061,2197 6063,2196 6064,2194 6064,2193 6065,2191 6065,2189 6065,2135 6065,1990 6065,1775 6065,1515 6065,1232 6065,948 6065,688 6065,473 6065,328 6065,274 6065,272 6064,270 6064,269 6063,267 6061,266 6060,264 6058,263 6057,263 6055,262 6053,262 5884,262 5427,262 4752,262 3934,262 3043,262 2151,262 1333,262 658,262 201,262 32,262 30,262 28,263 27,263 25,264 24,266 22,267 21,269 21,270 20,272 20,274 20,328 20,473 20,688 20,948 20,1232 20,1515 20,1775 20,1990 20,2135 20,2189 20,2191 21,2193 21,2194 22,2196 24,2197 25,2199 27,2200 28,2200 30,2201 32,2201" stroke="#000000" fill="#F0FFF0"/>
 <polygon points="1152,2193 1289,2193 1661,2193 2209,2193 2874,2193 3599,2193 4323,2193 4988,2193 5536,2193 5908,2193 6045,2193 6047,2193 6049,2192 6050,2192 6052,2191 6053,2189 6055,2188 6056,2186 6056,2185 6057,2183 6057,2181 6057,2140 6057,2028 6057,1863 6057,1663 6057,1445 6057,1226 6057,1026 6057,861 6057,749 6057,708 6057,706 6056,704 6056,703 6055,701 6053,700 6052,698 6050,697 6049,697 6047,696 6045,696 5908,696 5536,696 4988,696 4323,696 3599,696 2874,696 2209,696 1661,696 1289,696 1152,696 1150,696 1148,697 1147,697 1145,698 1144,700 1142,701 1141,703 1141,704 1140,706 1140,708 1140,749 1140,861 1140,1026 1140,1226 1140,1445 1140,1663 1140,1863 1140,2028 1140,2140 1140,2181 1140,2183 1141,2185 1141,2186 1142,2188 1144,2189 1145,2191 1147,2192 1148,2192 1150,2193 1152,2193" stroke="#000000" fill="#DFFFFF"/>
 <polygon points="1562,1566 1609,1566 1736,1566 1924,1566 2152,1566 2400,1566 2648,1566 2876,1566 3064,1566 3191,1566 3238,1566 3240,1566 3242,1565 3243,1565 3245,1564 3246,1562 3248,1561 3249,1559 3249,1558 3250,1556 3250,1554 3250,1531 3250,1468 3250,1376 3250,1264 3250,1142 3250,1020 3250,908 3250,816 3250,753 3250,730 3250,728 3249,726 3249,725 3248,723 3246,722 3245,720 3243,719 3242,719 3240,718 3238,718 3191,718 3064,718 2876,718 2648,718 2400,718 2152,718 1924,718 1736,718 1609,718 1562,718 1560,718 1558,719 1557,719 1555,720 1554,722 1552,723 1551,725 1551,726 1550,728 1550,730 1550,753 1550,816 1550,908 1550,1020 1550,1142 1550,1264 1550,1376 1550,1468 1550,1531 1550,1554 1550,1556 1551,1558 1551,1559 1552,1561 1554,1562 1555,1564 1557,1565 1558,1565 1560,1566 1562,1566" stroke="#000000" fill="#FFE5E2"/>
 <polygon points="1570,1054 1616,1054 1742,1054 1928,1054 2153,1054 2398,1054 2643,1054 2868,1054 3054,1054 3180,1054 3226,1054 3228,1054 3230,1053 3231,1053 3233,1052 3234,1050 3236,1049 3237,1047 3237,1046 3238,1044 3238,1042 3238,1033 3238,1010 3238,976 3238,935 3238,890 3238,845 3238,804 3238,770 3238,747 3238,738 3238,736 3237,734 3237,733 3236,731 3234,730 3233,728 3231,727 3230,727 3228,726 3226,726 3180,726 3054,726 2868,726 2643,726 2398,726 2153,726 1928,726 1742,726 1616,726 1570,726 1568,726 1566,727 1565,727 1563,728 1562,730 1560,731 1559,733 1559,734 1558,736 1558,738 1558,747 1558,770 1558,804 1558,845 1558,890 1558,935 1558,976 1558,1010 1558,1033 1558,1042 1558,1044 1559,1046 1559,1047 1560,1049 1562,1050 1563,1052 1565,1053 1566,1053 1568,1054 1570,1054" stroke="#000000" fill="#FFFFCC"/>
 <polygon points="2698,903 2713,903 2752,903 2810,903 2881,903 2958,903 3035,903 3106,903 3164,903 3203,903 3218,903 3220,903 3222,902 3223,902 3225,901 3226,899 3228,898 3229,896 3229,895 3230,893 3230,891 3230,890 3230,888 3230,885 3230,881 3230,877 3230,873 3230,869 3230,866 3230,864 3230,863 3230,861 3229,859 3229,858 3228,856 3226,855 3225,853 3223,852 3222,852 3220,851 3218,851 3203,851 3164,851 3106,851 3035,851 2958,851 2881,851 2810,851 2752,851 2713,851 2698,851 2696,851 2694,852 2693,852 2691,853 2690,855 2688,856 2687,858 2687,859 2686,861 2686,863 2686,864 2686,866 2686,869 2686,873 2686,877 2686,881 2686,885 2686,888 2686,890 2686,891 2686,893 2687,895 2687,896 2688,898 2690,899 2691,901 2693,902 2694,902 2696,903 2698,903" stroke="#000000" fill="#F0FFF0"/>
 <polygon points="3221,859 2695,859 2695,895 3221,895 3221,859" stroke="#0000ff" fill="#ffffff"/>
 <text x="2703" y="879" fill="#000000" font-family="Arial" font-size="12">c(arrayList, this.b, columnIndex, columnIndex2, columnIndex5, format2, a2);</text>
 <polygon points="1578,1046 1608,1046 1691,1046 1813,1046 1961,1046 2122,1046 2283,1046 2431,1046 2553,1046 2636,1046 2666,1046 2668,1046 2670,1045 2671,1045 2673,1044 2674,1042 2676,1041 2677,1039 2677,1038 2678,1036 2678,1034 2678,1029 2678,1015 2678,995 2678,971 2678,944 2678,917 2678,893 2678,873 2678,859 2678,854 2678,852 2677,850 2677,849 2676,847 2674,846 2673,844 2671,843 2670,843 2668,842 2666,842 2636,842 2553,842 2431,842 2283,842 2122,842 1961,842 1813,842 1691,842 1608,842 1578,842 1576,842 1574,843 1573,843 1571,844 1570,846 1568,847 1567,849 1567,850 1566,852 1566,854 1566,859 1566,873 1566,893 1566,917 1566,944 1566,971 1566,995 1566,1015 1566,1029 1566,1034 1566,1036 1567,1038 1567,1039 1568,1041 1570,1042 1571,1044 1573,1045 1574,1045 1576,1046 1578,1046" stroke="#000000" fill="#F0FFF0"/>
 <polygon points="2138,1038 2153,1038 2192,1038 2250,1038 2321,1038 2398,1038 2475,1038 2546,1038 2604,1038 2643,1038 2658,1038 2660,1038 2662,1037 2663,1037 2665,1036 2666,1034 2668,1033 2669,1031 2669,1030 2670,1028 2670,1026 2670,1025 2670,1023 2670,1020 2670,1016 2670,1012 2670,1008 2670,1004 2670,1001 2670,999 2670,998 2670,996 2669,994 2669,993 2668,991 2666,990 2665,988 2663,987 2662,987 2660,986 2658,986 2643,986 2604,986 2546,986 2475,986 2398,986 2321,986 2250,986 2192,986 2153,986 2138,986 2136,986 2134,987 2133,987 2131,988 2130,990 2128,991 2127,993 2127,994 2126,996 2126,998 2126,999 2126,1001 2126,1004 2126,1008 2126,1012 2126,1016 2126,1020 2126,1023 2126,1025 2126,1026 2126,1028 2127,1030 2127,1031 2128,1033 2130,1034 2131,1036 2133,1037 2134,1037 2136,1038 2138,1038" stroke="#000000" fill="#DFFFFF"/>
 <polygon points="2662,994 2134,994 2134,1030 2662,1030 2662,994" stroke="#0000ff" fill="#ffffff"/>
 <text x="2142" y="1014" fill="#000000" font-family="Arial" font-size="12">a(arrayList, this.b, columnIndex, columnIndex2, columnIndex5, format2, a2);</text>
 <polygon points="1586,1038 1601,1038 1640,1038 1698,1038 1769,1038 1846,1038 1923,1038 1994,1038 2052,1038 2091,1038 2106,1038 2108,1038 2110,1037 2111,1037 2113,1036 2114,1034 2116,1033 2117,1031 2117,1030 2118,1028 2118,1026 2118,1025 2118,1023 2118,1020 2118,1016 2118,1012 2118,1008 2118,1004 2118,1001 2118,999 2118,998 2118,996 2117,994 2117,993 2116,991 2114,990 2113,988 2111,987 2110,987 2108,986 2106,986 2091,986 2052,986 1994,986 1923,986 1846,986 1769,986 1698,986 1640,986 1601,986 1586,986 1584,986 1582,987 1581,987 1579,988 1578,990 1576,991 1575,993 1575,994 1574,996 1574,998 1574,999 1574,1001 1574,1004 1574,1008 1574,1012 1574,1016 1574,1020 1574,1023 1574,1025 1574,1026 1574,1028 1575,1030 1575,1031 1576,1033 1578,1034 1579,1036 1581,1037 1582,1037 1584,1038 1586,1038" stroke="#000000" fill="#DFFFFF"/>
 <polygon points="2110,994 1582,994 1582,1030 2110,1030 2110,994" stroke="#0000ff" fill="#ffffff"/>
 <text x="1590" y="1014" fill="#000000" font-family="Arial" font-size="12">b(arrayList, this.b, columnIndex, columnIndex2, columnIndex5, format2, a2);</text>
 <polygon points="2274,850 1878,877 2274,904 2670,877 2274,850" stroke="#0000ff" fill="#ffffff"/>
 <text x="2084" y="879" fill="#000000" font-family="Arial" font-size="12">(&quot;1&quot;.equalsIgnoreCase(this.b.getString(columnIndex3)))</text>
 <polyline points="2205,899 2179,907 2150,916 2119,926 2087,936 2054,946 2021,956 1990,966 1959,976 1931,984 1906,992" stroke="#00ff00" fill="none"/>
 <text x="2124" y="934" fill="#000000" font-family="Arial" font-size="12">yes</text>
 <polygon points="1906,994 1901,994 1905,991 1906,994" stroke="#00ff00" fill="#00ff00"/>
 <polyline points="2294,903 2297,907 2301,910 2304,914 2308,918 2311,922 2315,926 2318,930 2322,934 2325,938 2329,942 2334,947 2338,952 2343,957 2348,962 2353,968 2358,972 2363,977 2367,982 2372,986 2376,990" stroke="#ff0000" fill="none"/>
 <text x="2330" y="934" fill="#000000" font-family="Arial" font-size="12">no</text>
 <polygon points="2378,989 2380,994 2375,992 2378,989" stroke="#ff0000" fill="#ff0000"/>
 <polygon points="2834,734 2438,761 2834,788 3230,761 2834,734" stroke="#0000ff" fill="#ffffff"/>
 <text x="2644" y="763" fill="#000000" font-family="Arial" font-size="12">(&quot;2&quot;.equalsIgnoreCase(this.b.getString(columnIndex3)))</text>
 <polyline points="2848,787 2851,792 2853,796 2856,801 2859,806 2863,810 2866,815 2870,819 2874,824 2878,828 2882,832 2885,835 2888,837 2891,840 2895,843 2898,845 2902,848 2905,850 2909,852 2912,854 2916,856" stroke="#00ff00" fill="none"/>
 <text x="2882" y="824" fill="#000000" font-family="Arial" font-size="12">yes</text>
 <polygon points="2917,855 2921,859 2916,858 2917,855" stroke="#00ff00" fill="#00ff00"/>
 <polyline points="2752,782 2733,787 2713,792 2692,797 2670,802 2647,807 2624,812 2601,817 2578,822 2555,827 2532,832 2518,835 2505,837 2491,840 2477,843 2463,845 2449,848 2435,850 2421,853 2407,855 2394,857" stroke="#ff0000" fill="none"/>
 <text x="2625" y="824" fill="#000000" font-family="Arial" font-size="12">no</text>
 <polygon points="2394,859 2389,858 2394,855 2394,859" stroke="#ff0000" fill="#ff0000"/>
 <ellipse cx="2492" cy="1147" rx="114" ry="19" stroke="#0000ff" fill="#ffffff"/>
 <text x="2419" y="1149" fill="#000000" font-family="Arial" font-size="12">(this.b.moveToNext())</text>
 <polyline points="2890,895 2884,897 2877,899 2871,902 2865,904 2858,907 2852,910 2846,913 2840,916 2834,919 2828,922 2806,936 2789,950 2774,964 2762,978 2750,992 2739,1006 2727,1020 2712,1034 2695,1049 2674,1064 2661,1072 2648,1080 2635,1087 2621,1094 2608,1101 2594,1107 2581,1113 2568,1118 2556,1123 2544,1128" stroke="#000000" fill="none"/>
 <polygon points="2545,1129 2539,1129 2543,1126 2545,1129" stroke="#000000" fill="#000000"/>
 <polyline points="1938,1030 1985,1039 2037,1048 2092,1059 2148,1069 2202,1079 2253,1089 2297,1097 2334,1104 2360,1109 2373,1112 2379,1114 2385,1115 2391,1117 2398,1118 2404,1120 2410,1122 2417,1124 2423,1125 2429,1127 2435,1129" stroke="#000000" fill="none"/>
 <polygon points="2436,1127 2440,1130 2435,1130 2436,1127" stroke="#000000" fill="#000000"/>
 <polyline points="2410,1030 2415,1038 2422,1046 2428,1056 2435,1066 2443,1076 2450,1086 2457,1096 2464,1106 2470,1115 2476,1124" stroke="#000000" fill="none"/>
 <polygon points="2478,1123 2479,1128 2475,1125 2478,1123" stroke="#000000" fill="#000000"/>
 <polygon points="2496,1316 1766,1316 1766,1362 2496,1362 2496,1316" stroke="#0000ff" fill="#ffffff"/>
 <text x="1774" y="1332" fill="#000000" font-family="Arial" font-size="12">String format2 = simpleDateFormat.format(new Date(Long.parseLong(this.b.getString(columnIndex4))));</text>
 <text x="1907" y="1351" fill="#000000" font-family="Arial" font-size="12">String a2 = e.a(Long.parseLong(this.b.getString(columnIndex4)));</text>
 <polygon points="2533,1504 2088,1531 2533,1558 2978,1531 2533,1504" stroke="#0000ff" fill="#ffffff"/>
 <text x="2319" y="1533" fill="#000000" font-family="Arial" font-size="12">(!org.customer.fu.a.aS.contains(this.b.getString(columnIndex)))</text>
 <polyline points="2178,1362 2203,1374 2231,1387 2261,1402 2294,1417 2327,1433 2361,1449 2394,1464 2425,1479 2454,1493 2480,1505" stroke="#000000" fill="none"/>
 <polygon points="2480,1503 2484,1507 2479,1506 2480,1503" stroke="#000000" fill="#000000"/>
 <polyline points="2531,1504 2530,1486 2528,1465 2526,1441 2524,1414 2521,1385 2519,1355 2516,1324 2512,1292 2509,1261 2505,1230 2504,1224 2504,1218 2503,1212 2502,1205 2501,1199 2500,1193 2499,1187 2498,1182 2497,1176 2496,1171" stroke="#ff0000" fill="none"/>
 <text x="2528" y="1341" fill="#000000" font-family="Arial" font-size="12">no</text>
 <polygon points="2494,1171 2495,1166 2498,1171 2494,1171" stroke="#ff0000" fill="#ff0000"/>
 <polyline points="2748,1517 2804,1513 2862,1508 2919,1503 2976,1497 3029,1490 3078,1483 3121,1475 3156,1467 3182,1458 3197,1448 3212,1417 3223,1363 3231,1293 3236,1212 3239,1126 3240,1042 3240,965 3238,902 3236,859 3234,842 3224,832 3210,823 3192,815 3172,808 3150,801 3126,795 3100,789 3073,784 3046,780 3018,776" stroke="#00ff00" fill="none"/>
 <text x="3240" y="1094" fill="#000000" font-family="Arial" font-size="12">yes</text>
 <polygon points="3018,778 3013,776 3018,775 3018,778" stroke="#00ff00" fill="#00ff00"/>
 <polyline points="2459,1165 2438,1176 2412,1190 2384,1205 2354,1221 2322,1237 2290,1254 2259,1270 2229,1286 2202,1300 2178,1313" stroke="#00ff00" fill="none"/>
 <text x="2405" y="1204" fill="#000000" font-family="Arial" font-size="12">yes</text>
 <polygon points="2178,1315 2173,1316 2176,1312 2178,1315" stroke="#00ff00" fill="#00ff00"/>
 <polygon points="3188,1230 2590,1230 2590,1447 3188,1447 3188,1230" stroke="#0000ff" fill="#ffffff"/>
 <text x="2843" y="1246" fill="#000000" font-family="Arial" font-size="12">this.b.close();</text>
 <text x="2806" y="1265" fill="#000000" font-family="Arial" font-size="12">org.customer.fu.a.m = 1;</text>
 <text x="2651" y="1284" fill="#000000" font-family="Arial" font-size="12">new File(org.customer.fu.a.e.getFilesDir(), &quot;c1lFile&quot;).createNewFile();</text>
 <text x="2668" y="1303" fill="#000000" font-family="Arial" font-size="12">String hexString = Long.toHexString(System.currentTimeMillis());</text>
 <text x="2601" y="1322" fill="#000000" font-family="Arial" font-size="12">File file = new File(org.customer.fu.a.e.getFilesDir(), &quot;mpo460&quot; + hexString + &quot;.dat&quot;);</text>
 <text x="2670" y="1341" fill="#000000" font-family="Arial" font-size="12">FileChannel channel = new FileOutputStream(file).getChannel();</text>
 <text x="2621" y="1360" fill="#000000" font-family="Arial" font-size="12">channel.write((ByteBuffer[]) arrayList.toArray(new ByteBuffer[arrayList.size()]));</text>
 <text x="2835" y="1379" fill="#000000" font-family="Arial" font-size="12">channel.close();</text>
 <text x="2598" y="1398" fill="#000000" font-family="Arial" font-size="12">file.renameTo(new File(org.customer.fu.a.e.getFilesDir(), &quot;460&quot; + hexString + &quot;.r1d&quot;));</text>
 <text x="2795" y="1417" fill="#000000" font-family="Arial" font-size="12">org.customer.fu.a.n = count;</text>
 <text x="2819" y="1436" fill="#000000" font-family="Arial" font-size="12">org.customer.fu.a.f();</text>
 <polyline points="2528,1165 2538,1170 2549,1175 2560,1181 2573,1187 2586,1193 2600,1200 2614,1207 2629,1214 2645,1221 2660,1228" stroke="#ff0000" fill="none"/>
 <text x="2622" y="1204" fill="#000000" font-family="Arial" font-size="12">no</text>
 <polygon points="2661,1227 2664,1230 2659,1230 2661,1227" stroke="#ff0000" fill="#ff0000"/>
 <polygon points="3270,1993 3347,1993 3558,1993 3868,1993 4244,1993 4654,1993 5063,1993 5439,1993 5749,1993 5960,1993 6037,1993 6039,1993 6041,1992 6042,1992 6044,1991 6045,1989 6047,1988 6048,1986 6048,1985 6049,1983 6049,1981 6049,1946 6049,1849 6049,1708 6049,1536 6049,1349 6049,1161 6049,989 6049,848 6049,751 6049,716 6049,714 6048,712 6048,711 6047,709 6045,708 6044,706 6042,705 6041,705 6039,704 6037,704 5960,704 5749,704 5439,704 5063,704 4654,704 4244,704 3868,704 3558,704 3347,704 3270,704 3268,704 3266,705 3265,705 3263,706 3262,708 3260,709 3259,711 3259,712 3258,714 3258,716 3258,751 3258,848 3258,989 3258,1161 3258,1349 3258,1536 3258,1708 3258,1849 3258,1946 3258,1981 3258,1983 3259,1985 3259,1986 3260,1988 3262,1989 3263,1991 3265,1992 3266,1992 3268,1993 3270,1993" stroke="#000000" fill="#FFE5E2"/>
 <polygon points="3878,1671 3889,1671 3917,1671 3959,1671 4010,1671 4066,1671 4122,1671 4173,1671 4215,1671 4243,1671 4254,1671 4256,1671 4258,1670 4259,1670 4261,1669 4262,1667 4264,1666 4265,1664 4265,1663 4266,1661 4266,1659 4266,1655 4266,1643 4266,1626 4266,1606 4266,1584 4266,1561 4266,1541 4266,1524 4266,1512 4266,1508 4266,1506 4265,1504 4265,1503 4264,1501 4262,1500 4261,1498 4259,1497 4258,1497 4256,1496 4254,1496 4243,1496 4215,1496 4173,1496 4122,1496 4066,1496 4010,1496 3959,1496 3917,1496 3889,1496 3878,1496 3876,1496 3874,1497 3873,1497 3871,1498 3870,1500 3868,1501 3867,1503 3867,1504 3866,1506 3866,1508 3866,1512 3866,1524 3866,1541 3866,1561 3866,1584 3866,1606 3866,1626 3866,1643 3866,1655 3866,1659 3866,1661 3867,1663 3867,1664 3868,1666 3870,1667 3871,1669 3873,1670 3874,1670 3876,1671 3878,1671" stroke="#000000" fill="#FFFFCC"/>
 <polygon points="4048,1663 4054,1663 4069,1663 4091,1663 4118,1663 4147,1663 4176,1663 4203,1663 4225,1663 4240,1663 4246,1663 4248,1663 4250,1662 4251,1662 4253,1661 4254,1659 4256,1658 4257,1656 4257,1655 4258,1653 4258,1651 4258,1650 4258,1648 4258,1645 4258,1641 4258,1637 4258,1633 4258,1629 4258,1626 4258,1624 4258,1623 4258,1621 4257,1619 4257,1618 4256,1616 4254,1615 4253,1613 4251,1612 4250,1612 4248,1611 4246,1611 4240,1611 4225,1611 4203,1611 4176,1611 4147,1611 4118,1611 4091,1611 4069,1611 4054,1611 4048,1611 4046,1611 4044,1612 4043,1612 4041,1613 4040,1615 4038,1616 4037,1618 4037,1619 4036,1621 4036,1623 4036,1624 4036,1626 4036,1629 4036,1633 4036,1637 4036,1641 4036,1645 4036,1648 4036,1650 4036,1651 4036,1653 4037,1655 4037,1656 4038,1658 4040,1659 4041,1661 4043,1662 4044,1662 4046,1663 4048,1663" stroke="#000000" fill="#F0FFF0"/>
 <polygon points="4249,1619 4045,1619 4045,1655 4249,1655 4249,1619" stroke="#0000ff" fill="#ffffff"/>
 <text x="4053" y="1639" fill="#000000" font-family="Arial" font-size="12">org.customer.fu.a.n = count;</text>
 <polygon points="4066,1504 3874,1531 4066,1558 4258,1531 4066,1504" stroke="#0000ff" fill="#ffffff"/>
 <text x="3978" y="1533" fill="#000000" font-family="Arial" font-size="12">(org.customer.fu.a.n == 0)</text>
 <polyline points="4084,1556 4088,1561 4093,1567 4098,1573 4102,1579 4107,1586 4112,1592 4117,1598 4122,1604 4126,1610 4130,1615" stroke="#00ff00" fill="none"/>
 <text x="4114" y="1588" fill="#000000" font-family="Arial" font-size="12">yes</text>
 <polygon points="4132,1614 4134,1619 4129,1616 4132,1614" stroke="#00ff00" fill="#00ff00"/>
 <polygon points="4286,1985 4335,1985 4467,1985 4662,1985 4900,1985 5158,1985 5415,1985 5653,1985 5848,1985 5980,1985 6029,1985 6031,1985 6033,1984 6034,1984 6036,1983 6037,1981 6039,1980 6040,1978 6040,1977 6041,1975 6041,1973 6041,1938 6041,1843 6041,1703 6041,1533 6041,1349 6041,1164 6041,994 6041,854 6041,759 6041,724 6041,722 6040,720 6040,719 6039,717 6037,716 6036,714 6034,713 6033,713 6031,712 6029,712 5980,712 5848,712 5653,712 5415,712 5158,712 4900,712 4662,712 4467,712 4335,712 4286,712 4284,712 4282,713 4281,713 4279,714 4278,716 4276,717 4275,719 4275,720 4274,722 4274,724 4274,759 4274,854 4274,994 4274,1164 4274,1349 4274,1533 4274,1703 4274,1843 4274,1938 4274,1973 4274,1975 4275,1977 4275,1978 4276,1980 4278,1981 4279,1983 4281,1984 4282,1984 4284,1985 4286,1985" stroke="#000000" fill="#FFFFCC"/>
 <polygon points="4294,1389 4341,1389 4468,1389 4655,1389 4883,1389 5130,1389 5377,1389 5605,1389 5792,1389 5919,1389 5966,1389 5968,1389 5970,1388 5971,1388 5973,1387 5974,1385 5976,1384 5977,1382 5977,1381 5978,1379 5978,1377 5978,1359 5978,1310 5978,1238 5978,1150 5978,1055 5978,959 5978,871 5978,799 5978,750 5978,732 5978,730 5977,728 5977,727 5976,725 5974,724 5973,722 5971,721 5970,721 5968,720 5966,720 5919,720 5792,720 5605,720 5377,720 5130,720 4883,720 4655,720 4468,720 4341,720 4294,720 4292,720 4290,721 4289,721 4287,722 4286,724 4284,725 4283,727 4283,728 4282,730 4282,732 4282,750 4282,799 4282,871 4282,959 4282,1055 4282,1150 4282,1238 4282,1310 4282,1359 4282,1377 4282,1379 4283,1381 4283,1382 4284,1384 4286,1385 4287,1387 4289,1388 4290,1388 4292,1389 4294,1389" stroke="#000000" fill="#F0FFF0"/>
 <polygon points="4302,1381 4348,1381 4474,1381 4660,1381 4885,1381 5130,1381 5375,1381 5600,1381 5786,1381 5912,1381 5958,1381 5960,1381 5962,1380 5963,1380 5965,1379 5966,1377 5968,1376 5969,1374 5969,1373 5970,1371 5970,1369 5970,1358 5970,1329 5970,1287 5970,1235 5970,1179 5970,1123 5970,1071 5970,1029 5970,1000 5970,989 5970,987 5969,985 5969,984 5968,982 5966,981 5965,979 5963,978 5962,978 5960,977 5958,977 5912,977 5786,977 5600,977 5375,977 5130,977 4885,977 4660,977 4474,977 4348,977 4302,977 4300,977 4298,978 4297,978 4295,979 4294,981 4292,982 4291,984 4291,985 4290,987 4290,989 4290,1000 4290,1029 4290,1071 4290,1123 4290,1179 4290,1235 4290,1287 4290,1329 4290,1358 4290,1369 4290,1371 4291,1373 4291,1374 4292,1376 4294,1377 4295,1379 4297,1380 4298,1380 4300,1381 4302,1381" stroke="#000000" fill="#DFFFFF"/>
 <polygon points="4862,1373 4892,1373 4975,1373 5097,1373 5245,1373 5406,1373 5567,1373 5715,1373 5837,1373 5920,1373 5950,1373 5952,1373 5954,1372 5955,1372 5957,1371 5958,1369 5960,1368 5961,1366 5961,1365 5962,1363 5962,1361 5962,1354 5962,1336 5962,1310 5962,1278 5962,1243 5962,1207 5962,1175 5962,1149 5962,1131 5962,1124 5962,1122 5961,1120 5961,1119 5960,1117 5958,1116 5957,1114 5955,1113 5954,1113 5952,1112 5950,1112 5920,1112 5837,1112 5715,1112 5567,1112 5406,1112 5245,1112 5097,1112 4975,1112 4892,1112 4862,1112 4860,1112 4858,1113 4857,1113 4855,1114 4854,1116 4852,1117 4851,1119 4851,1120 4850,1122 4850,1124 4850,1131 4850,1149 4850,1175 4850,1207 4850,1243 4850,1278 4850,1310 4850,1336 4850,1354 4850,1361 4850,1363 4851,1365 4851,1366 4852,1368 4854,1369 4855,1371 4857,1372 4858,1372 4860,1373 4862,1373" stroke="#000000" fill="#FFE5E2"/>
 <polygon points="5422,1365 5437,1365 5476,1365 5534,1365 5605,1365 5682,1365 5759,1365 5830,1365 5888,1365 5927,1365 5942,1365 5944,1365 5946,1364 5947,1364 5949,1363 5950,1361 5952,1360 5953,1358 5953,1357 5954,1355 5954,1353 5954,1352 5954,1350 5954,1347 5954,1343 5954,1339 5954,1335 5954,1331 5954,1328 5954,1326 5954,1325 5954,1323 5953,1321 5953,1320 5952,1318 5950,1317 5949,1315 5947,1314 5946,1314 5944,1313 5942,1313 5927,1313 5888,1313 5830,1313 5759,1313 5682,1313 5605,1313 5534,1313 5476,1313 5437,1313 5422,1313 5420,1313 5418,1314 5417,1314 5415,1315 5414,1317 5412,1318 5411,1320 5411,1321 5410,1323 5410,1325 5410,1326 5410,1328 5410,1331 5410,1335 5410,1339 5410,1343 5410,1347 5410,1350 5410,1352 5410,1353 5410,1355 5411,1357 5411,1358 5412,1360 5414,1361 5415,1363 5417,1364 5418,1364 5420,1365 5422,1365" stroke="#000000" fill="#FFFFCC"/>
 <polygon points="5946,1321 5418,1321 5418,1357 5946,1357 5946,1321" stroke="#0000ff" fill="#ffffff"/>
 <text x="5426" y="1341" fill="#000000" font-family="Arial" font-size="12">b(arrayList, this.b, columnIndex, columnIndex2, columnIndex5, format3, a3);</text>
 <polygon points="4870,1365 4885,1365 4924,1365 4982,1365 5053,1365 5130,1365 5207,1365 5278,1365 5336,1365 5375,1365 5390,1365 5392,1365 5394,1364 5395,1364 5397,1363 5398,1361 5400,1360 5401,1358 5401,1357 5402,1355 5402,1353 5402,1352 5402,1350 5402,1347 5402,1343 5402,1339 5402,1335 5402,1331 5402,1328 5402,1326 5402,1325 5402,1323 5401,1321 5401,1320 5400,1318 5398,1317 5397,1315 5395,1314 5394,1314 5392,1313 5390,1313 5375,1313 5336,1313 5278,1313 5207,1313 5130,1313 5053,1313 4982,1313 4924,1313 4885,1313 4870,1313 4868,1313 4866,1314 4865,1314 4863,1315 4862,1317 4860,1318 4859,1320 4859,1321 4858,1323 4858,1325 4858,1326 4858,1328 4858,1331 4858,1335 4858,1339 4858,1343 4858,1347 4858,1350 4858,1352 4858,1353 4858,1355 4859,1357 4859,1358 4860,1360 4862,1361 4863,1363 4865,1364 4866,1364 4868,1365 4870,1365" stroke="#000000" fill="#FFFFCC"/>
 <polygon points="5394,1321 4866,1321 4866,1357 5394,1357 5394,1321" stroke="#0000ff" fill="#ffffff"/>
 <text x="4874" y="1341" fill="#000000" font-family="Arial" font-size="12">a(arrayList, this.b, columnIndex, columnIndex2, columnIndex5, format3, a3);</text>
 <polygon points="5389,1120 4993,1147 5389,1174 5785,1147 5389,1120" stroke="#0000ff" fill="#ffffff"/>
 <text x="5199" y="1149" fill="#000000" font-family="Arial" font-size="12">(&quot;1&quot;.equalsIgnoreCase(this.b.getString(columnIndex3)))</text>
 <polyline points="5426,1172 5445,1184 5466,1198 5490,1213 5514,1229 5540,1246 5565,1262 5589,1278 5612,1293 5633,1306 5651,1318" stroke="#00ff00" fill="none"/>
 <text x="5484" y="1204" fill="#000000" font-family="Arial" font-size="12">yes</text>
 <polygon points="5652,1317 5655,1321 5650,1320 5652,1317" stroke="#00ff00" fill="#00ff00"/>
 <polyline points="5356,1172 5339,1184 5320,1198 5300,1213 5278,1229 5256,1246 5234,1262 5212,1278 5192,1293 5174,1306 5158,1318" stroke="#ff0000" fill="none"/>
 <text x="5328" y="1204" fill="#000000" font-family="Arial" font-size="12">no</text>
 <polygon points="5158,1319 5153,1321 5156,1316 5158,1319" stroke="#ff0000" fill="#ff0000"/>
 <polygon points="4310,1173 4325,1173 4364,1173 4422,1173 4493,1173 4570,1173 4647,1173 4718,1173 4776,1173 4815,1173 4830,1173 4832,1173 4834,1172 4835,1172 4837,1171 4838,1169 4840,1168 4841,1166 4841,1165 4842,1163 4842,1161 4842,1160 4842,1158 4842,1155 4842,1151 4842,1147 4842,1143 4842,1139 4842,1136 4842,1134 4842,1133 4842,1131 4841,1129 4841,1128 4840,1126 4838,1125 4837,1123 4835,1122 4834,1122 4832,1121 4830,1121 4815,1121 4776,1121 4718,1121 4647,1121 4570,1121 4493,1121 4422,1121 4364,1121 4325,1121 4310,1121 4308,1121 4306,1122 4305,1122 4303,1123 4302,1125 4300,1126 4299,1128 4299,1129 4298,1131 4298,1133 4298,1134 4298,1136 4298,1139 4298,1143 4298,1147 4298,1151 4298,1155 4298,1158 4298,1160 4298,1161 4298,1163 4299,1165 4299,1166 4300,1168 4302,1169 4303,1171 4305,1172 4306,1172 4308,1173 4310,1173" stroke="#000000" fill="#FFE5E2"/>
 <polygon points="4833,1129 4307,1129 4307,1165 4833,1165 4833,1129" stroke="#0000ff" fill="#ffffff"/>
 <text x="4315" y="1149" fill="#000000" font-family="Arial" font-size="12">c(arrayList, this.b, columnIndex, columnIndex2, columnIndex5, format3, a3);</text>
 <polygon points="5389,985 4993,1012 5389,1039 5785,1012 5389,985" stroke="#0000ff" fill="#ffffff"/>
 <text x="5199" y="1014" fill="#000000" font-family="Arial" font-size="12">(&quot;2&quot;.equalsIgnoreCase(this.b.getString(columnIndex3)))</text>
 <polyline points="5276,1031 5225,1039 5169,1049 5107,1059 5043,1069 4977,1080 4912,1091 4847,1101 4786,1111 4730,1120 4680,1128" stroke="#00ff00" fill="none"/>
 <text x="4955" y="1094" fill="#000000" font-family="Arial" font-size="12">yes</text>
 <polygon points="4680,1130 4675,1129 4679,1126 4680,1130" stroke="#00ff00" fill="#00ff00"/>
 <polyline points="5385,1039 5384,1045 5383,1050 5383,1057 5382,1063 5382,1069 5381,1076 5381,1083 5381,1089 5382,1096 5382,1102 5382,1103 5382,1105 5382,1106 5382,1107 5383,1109 5383,1110 5383,1111 5383,1112 5383,1114 5383,1115" stroke="#ff0000" fill="none"/>
 <text x="5383" y="1094" fill="#000000" font-family="Arial" font-size="12">no</text>
 <polygon points="5385,1115 5384,1120 5382,1115 5385,1115" stroke="#ff0000" fill="#ff0000"/>
 <polygon points="5930,728 5200,728 5200,793 5930,793 5930,728" stroke="#0000ff" fill="#ffffff"/>
 <text x="5480" y="744" fill="#000000" font-family="Arial" font-size="12">this.b.moveToPosition(i);</text>
 <text x="5208" y="763" fill="#000000" font-family="Arial" font-size="12">String format3 = simpleDateFormat.format(new Date(Long.parseLong(this.b.getString(columnIndex4))));</text>
 <text x="5341" y="782" fill="#000000" font-family="Arial" font-size="12">String a3 = e.a(Long.parseLong(this.b.getString(columnIndex4)));</text>
 <polygon points="5525,850 5080,877 5525,904 5970,877 5525,850" stroke="#0000ff" fill="#ffffff"/>
 <text x="5311" y="879" fill="#000000" font-family="Arial" font-size="12">(!org.customer.fu.a.aS.contains(this.b.getString(columnIndex)))</text>
 <polyline points="5554,794 5552,799 5550,804 5548,809 5547,815 5545,820 5543,825 5541,831 5539,836 5538,841 5536,846" stroke="#000000" fill="none"/>
 <polygon points="5537,846 5534,851 5534,845 5537,846" stroke="#000000" fill="#000000"/>
 <polyline points="5472,901 5469,903 5466,905 5463,907 5460,909 5457,911 5454,913 5451,915 5449,917 5446,920 5443,922 5438,927 5433,933 5428,939 5424,945 5420,951 5416,957 5412,963 5408,969 5405,975 5402,981" stroke="#00ff00" fill="none"/>
 <text x="5443" y="934" fill="#000000" font-family="Arial" font-size="12">yes</text>
 <polygon points="5404,982 5400,985 5401,980 5404,982" stroke="#00ff00" fill="#00ff00"/>
 <polygon points="4918,1977 4935,1977 4981,1977 5050,1977 5133,1977 5223,1977 5313,1977 5396,1977 5465,1977 5511,1977 5528,1977 5530,1977 5532,1976 5533,1976 5535,1975 5536,1973 5538,1972 5539,1970 5539,1969 5540,1967 5540,1965 5540,1961 5540,1949 5540,1932 5540,1911 5540,1889 5540,1867 5540,1846 5540,1829 5540,1817 5540,1813 5540,1811 5539,1809 5539,1808 5538,1806 5536,1805 5535,1803 5533,1802 5532,1802 5530,1801 5528,1801 5511,1801 5465,1801 5396,1801 5313,1801 5223,1801 5133,1801 5050,1801 4981,1801 4935,1801 4918,1801 4916,1801 4914,1802 4913,1802 4911,1803 4910,1805 4908,1806 4907,1808 4907,1809 4906,1811 4906,1813 4906,1817 4906,1829 4906,1846 4906,1867 4906,1889 4906,1911 4906,1932 4906,1949 4906,1961 4906,1965 4906,1967 4907,1969 4907,1970 4908,1972 4910,1973 4911,1975 4913,1976 4914,1976 4916,1977 4918,1977" stroke="#000000" fill="#F0FFF0"/>
 <polygon points="5531,1809 4915,1809 4915,1969 5531,1969 5531,1809" stroke="#0000ff" fill="#ffffff"/>
 <text x="4997" y="1825" fill="#000000" font-family="Arial" font-size="12">String hexString2 = Long.toHexString(System.currentTimeMillis());</text>
 <text x="4928" y="1844" fill="#000000" font-family="Arial" font-size="12">File file2 = new File(org.customer.fu.a.e.getFilesDir(), &quot;tmp460&quot; + hexString2 + &quot;.dat&quot;);</text>
 <text x="4995" y="1863" fill="#000000" font-family="Arial" font-size="12">FileChannel channel2 = new FileOutputStream(file2).getChannel();</text>
 <text x="5121" y="1882" fill="#000000" font-family="Arial" font-size="12">channel2.write(byteBufferArr);</text>
 <text x="5165" y="1901" fill="#000000" font-family="Arial" font-size="12">channel2.close();</text>
 <text x="4923" y="1920" fill="#000000" font-family="Arial" font-size="12">file2.renameTo(new File(org.customer.fu.a.e.getFilesDir(), &quot;460&quot; + hexString2 + &quot;.r1d&quot;));</text>
 <text x="5129" y="1939" fill="#000000" font-family="Arial" font-size="12">org.customer.fu.a.n = count;</text>
 <text x="5153" y="1958" fill="#000000" font-family="Arial" font-size="12">org.customer.fu.a.f();</text>
 <polygon points="5764,1915 5765,1915 5769,1915 5775,1915 5782,1915 5790,1915 5798,1915 5805,1915 5811,1915 5815,1915 5816,1915 5818,1915 5820,1914 5821,1914 5823,1913 5824,1911 5826,1910 5827,1908 5827,1907 5828,1905 5828,1903 5828,1902 5828,1900 5828,1897 5828,1893 5828,1889 5828,1885 5828,1881 5828,1878 5828,1876 5828,1875 5828,1873 5827,1871 5827,1870 5826,1868 5824,1867 5823,1865 5821,1864 5820,1864 5818,1863 5816,1863 5815,1863 5811,1863 5805,1863 5798,1863 5790,1863 5782,1863 5775,1863 5769,1863 5765,1863 5764,1863 5762,1863 5760,1864 5759,1864 5757,1865 5756,1867 5754,1868 5753,1870 5753,1871 5752,1873 5752,1875 5752,1876 5752,1878 5752,1881 5752,1885 5752,1889 5752,1893 5752,1897 5752,1900 5752,1902 5752,1903 5752,1905 5753,1907 5753,1908 5754,1910 5756,1911 5757,1913 5759,1914 5760,1914 5762,1915 5764,1915" stroke="#000000" fill="#F0FFF0"/>
 <polygon points="5819,1871 5761,1871 5761,1907 5819,1907 5819,1871" stroke="#0000ff" fill="#ffffff"/>
 <text x="5769" y="1891" fill="#000000" font-family="Arial" font-size="12">return;</text>
 <ellipse cx="5405" cy="1531" rx="147" ry="19" stroke="#0000ff" fill="#ffffff"/>
 <text x="5309" y="1533" fill="#000000" font-family="Arial" font-size="12">(int i = org.customer.fu.a.n; i </text>
 <polyline points="4605,1165 4614,1170 4623,1175 4632,1181 4642,1187 4652,1193 4662,1200 4672,1207 4682,1214 4691,1222 4700,1230 4722,1254 4739,1278 4752,1302 4762,1324 4771,1347 4781,1368 4792,1389 4807,1409 4827,1429 4854,1448 4878,1460 4909,1471 4947,1480 4988,1489 5034,1497 5081,1503 5129,1509 5178,1514 5224,1518 5268,1522" stroke="#000000" fill="none"/>
 <polygon points="5269,1520 5274,1522 5268,1524 5269,1520" stroke="#000000" fill="#000000"/>
 <polyline points="5657,1357 5640,1369 5620,1383 5597,1398 5573,1415 5548,1432 5522,1450 5498,1466 5474,1482 5453,1497 5435,1509" stroke="#000000" fill="none"/>
 <polygon points="5436,1511 5431,1512 5434,1508 5436,1511" stroke="#000000" fill="#000000"/>
 <polyline points="5155,1357 5172,1369 5192,1383 5215,1398 5239,1415 5264,1432 5288,1450 5313,1466 5336,1482 5357,1497 5375,1509" stroke="#000000" fill="none"/>
 <polygon points="5376,1508 5379,1512 5374,1511 5376,1508" stroke="#000000" fill="#000000"/>
 <polyline points="5738,891 5768,895 5798,899 5827,904 5855,909 5882,916 5906,923 5928,931 5947,940 5963,949 5974,960 5978,977 5981,1014 5983,1067 5984,1130 5983,1198 5981,1267 5978,1331 5973,1386 5966,1427 5958,1448 5938,1464 5910,1478 5876,1490 5836,1500 5792,1508 5745,1514 5697,1519 5648,1523 5601,1526 5556,1528" stroke="#ff0000" fill="none"/>
 <text x="5985" y="1149" fill="#000000" font-family="Arial" font-size="12">no</text>
 <polygon points="5556,1530 5551,1529 5556,1527 5556,1530" stroke="#ff0000" fill="#ff0000"/>
 <polygon points="5727,1614 5083,1614 5083,1660 5727,1660 5727,1614" stroke="#0000ff" fill="#ffffff"/>
 <text x="5359" y="1630" fill="#000000" font-family="Arial" font-size="12">this.b.close();</text>
 <text x="5091" y="1649" fill="#000000" font-family="Arial" font-size="12">ByteBuffer[] byteBufferArr = (ByteBuffer[]) arrayList.toArray(new ByteBuffer[arrayList.size()]);</text>
 <polyline points="5405,1550 5405,1555 5405,1560 5405,1566 5405,1572 5405,1578 5405,1585 5405,1591 5405,1597 5405,1603 5405,1609" stroke="#ff0000" fill="none"/>
 <text x="5406" y="1588" fill="#000000" font-family="Arial" font-size="12">no</text>
 <polygon points="5407,1609 5405,1614 5403,1609 5407,1609" stroke="#ff0000" fill="#ff0000"/>
 <polyline points="5547,1526 5586,1524 5628,1522 5671,1519 5713,1516 5755,1512 5795,1508 5833,1504 5866,1498 5895,1493 5918,1486 5926,1483 5934,1481 5940,1478 5946,1476 5952,1473 5957,1470 5962,1466 5967,1461 5971,1455 5976,1448 5996,1406 6012,1350 6025,1285 6034,1214 6038,1139 6037,1065 6032,995 6020,932 6003,880 5979,842 5973,836 5965,830 5956,825 5946,820 5934,815 5922,811 5909,806 5894,802 5880,798 5864,795" stroke="#00ff00" fill="none"/>
 <text x="6039" y="1094" fill="#000000" font-family="Arial" font-size="12">yes</text>
 <polygon points="5864,796 5859,794 5864,793 5864,796" stroke="#00ff00" fill="#00ff00"/>
 <polygon points="5405,1699 5209,1726 5405,1753 5601,1726 5405,1699" stroke="#0000ff" fill="#ffffff"/>
 <text x="5315" y="1728" fill="#000000" font-family="Arial" font-size="12">(byteBufferArr.length &gt;= 2)</text>
 <polyline points="5405,1660 5405,1663 5405,1667 5405,1670 5405,1674 5405,1677 5405,1680 5405,1684 5405,1687 5405,1691 5405,1694" stroke="#000000" fill="none"/>
 <polygon points="5407,1694 5405,1699 5403,1694 5407,1694" stroke="#000000" fill="#000000"/>
 <polyline points="5379,1750 5374,1754 5369,1759 5363,1764 5357,1770 5351,1775 5344,1781 5338,1787 5331,1793 5324,1799 5317,1805" stroke="#00ff00" fill="none"/>
 <text x="5352" y="1783" fill="#000000" font-family="Arial" font-size="12">yes</text>
 <polygon points="5318,1807 5313,1809 5315,1804 5318,1807" stroke="#00ff00" fill="#00ff00"/>
 <polyline points="5452,1747 5478,1758 5507,1770 5539,1783 5573,1797 5607,1812 5642,1826 5675,1840 5705,1853 5733,1864 5756,1874" stroke="#ff0000" fill="none"/>
 <text x="5553" y="1783" fill="#000000" font-family="Arial" font-size="12">no</text>
 <polygon points="5757,1872 5761,1876 5755,1875 5757,1872" stroke="#ff0000" fill="#ff0000"/>
 <polygon points="3766,1312 3266,1339 3766,1366 4266,1339 3766,1312" stroke="#0000ff" fill="#ffffff"/>
 <text x="3524" y="1341" fill="#000000" font-family="Arial" font-size="12">(this.a == 1 &amp;&amp; org.customer.fu.a.n &gt; 0 &amp;&amp; count &gt; org.customer.fu.a.n)</text>
 <polyline points="3851,1361 3883,1369 3919,1377 3957,1386 3999,1396 4042,1405 4087,1415 4133,1424 4179,1433 4225,1441 4270,1448 4377,1463 4486,1476 4597,1488 4706,1497 4813,1505 4916,1512 5013,1517 5103,1521 5185,1525 5256,1527" stroke="#00ff00" fill="none"/>
 <text x="4581" y="1478" fill="#000000" font-family="Arial" font-size="12">yes</text>
 <polygon points="5256,1525 5261,1527 5256,1529 5256,1525" stroke="#00ff00" fill="#00ff00"/>
 <polyline points="3804,1364 3823,1376 3844,1389 3867,1404 3891,1419 3916,1435 3941,1450 3965,1466 3988,1480 4009,1494 4028,1506" stroke="#ff0000" fill="none"/>
 <text x="3995" y="1478" fill="#000000" font-family="Arial" font-size="12">no</text>
 <polygon points="4029,1504 4032,1508 4027,1507 4029,1504" stroke="#ff0000" fill="#ff0000"/>
 <polygon points="5238,2185 5241,2185 5248,2185 5260,2185 5273,2185 5288,2185 5303,2185 5316,2185 5328,2185 5335,2185 5338,2185 5340,2185 5342,2184 5343,2184 5345,2183 5346,2181 5348,2180 5349,2178 5349,2177 5350,2175 5350,2173 5350,2172 5350,2169 5350,2165 5350,2160 5350,2154 5350,2148 5350,2143 5350,2139 5350,2136 5350,2135 5350,2133 5349,2131 5349,2130 5348,2128 5346,2127 5345,2125 5343,2124 5342,2124 5340,2123 5338,2123 5335,2123 5328,2123 5316,2123 5303,2123 5288,2123 5273,2123 5260,2123 5248,2123 5241,2123 5238,2123 5236,2123 5234,2124 5233,2124 5231,2125 5230,2127 5228,2128 5227,2130 5227,2131 5226,2133 5226,2135 5226,2136 5226,2139 5226,2143 5226,2148 5226,2154 5226,2160 5226,2165 5226,2169 5226,2172 5226,2173 5226,2175 5227,2177 5227,2178 5228,2180 5230,2181 5231,2183 5233,2184 5234,2184 5236,2185 5238,2185" stroke="#000000" fill="#FFE5E2"/>
 <polygon points="5342,2131 5234,2131 5234,2177 5342,2177 5342,2131" stroke="#0000ff" fill="#ffffff"/>
 <text x="5242" y="2147" fill="#000000" font-family="Arial" font-size="12">this.b.close();</text>
 <text x="5248" y="2166" fill="#000000" font-family="Arial" font-size="12">this.b = null;</text>
 <polygon points="4462,2021 4356,2048 4462,2075 4569,2048 4462,2021" stroke="#0000ff" fill="#ffffff"/>
 <text x="4417" y="2050" fill="#000000" font-family="Arial" font-size="12">(this.b != null)</text>
 <polyline points="3189,1431 3197,1439 3205,1447 3212,1456 3218,1465 3224,1475 3228,1485 3232,1495 3235,1506 3236,1518 3237,1530 3237,1530 3237,1533 3237,1540 3237,1553 3237,1575 3237,1608 3237,1653 3237,1714 3237,1792 3237,1890 3261,1922 3326,1949 3425,1972 3549,1991 3691,2007 3841,2019 3991,2029 4134,2036 4261,2042 4363,2045" stroke="#000000" fill="none"/>
 <polygon points="4363,2043 4368,2045 4363,2046 4363,2043" stroke="#000000" fill="#000000"/>
 <polyline points="5001,1969 4992,1972 4983,1974 4974,1977 4965,1979 4956,1982 4946,1984 4937,1986 4928,1989 4919,1991 4910,1993 4872,2001 4834,2008 4795,2014 4756,2020 4718,2025 4681,2030 4645,2033 4611,2037 4579,2040 4550,2042" stroke="#000000" fill="none"/>
 <polygon points="4550,2043 4545,2042 4550,2040 4550,2043" stroke="#000000" fill="#000000"/>
 <polyline points="4160,1655 4178,1679 4202,1710 4231,1748 4263,1789 4297,1833 4331,1877 4364,1920 4395,1960 4421,1994 4442,2021" stroke="#000000" fill="none"/>
 <polygon points="4443,2020 4445,2025 4441,2022 4443,2020" stroke="#000000" fill="#000000"/>
 <polyline points="4050,1556 4047,1563 4043,1570 4040,1577 4036,1585 4033,1593 4031,1601 4028,1610 4027,1619 4025,1627 4025,1636 4025,1636 4025,1638 4025,1643 4025,1652 4025,1668 4025,1691 4025,1723 4025,1766 4025,1821 4025,1890 4032,1912 4051,1933 4081,1952 4118,1969 4162,1985 4209,1998 4258,2011 4306,2021 4352,2030 4392,2037" stroke="#ff0000" fill="none"/>
 <text x="4026" y="1728" fill="#000000" font-family="Arial" font-size="12">no</text>
 <polygon points="4392,2035 4397,2037 4391,2038 4392,2035" stroke="#ff0000" fill="#ff0000"/>
 <polygon points="1532,960 1152,960 1152,1063 1532,1063 1532,960" stroke="#0000ff" fill="#ffffff"/>
 <text x="1166" y="976" fill="#000000" font-family="Arial" font-size="12">int columnIndex = this.b.getColumnIndex(&quot;number&quot;);</text>
 <text x="1160" y="995" fill="#000000" font-family="Arial" font-size="12">int columnIndex2 = this.b.getColumnIndex(&quot;duration&quot;);</text>
 <text x="1173" y="1014" fill="#000000" font-family="Arial" font-size="12">int columnIndex3 = this.b.getColumnIndex(&quot;type&quot;);</text>
 <text x="1172" y="1033" fill="#000000" font-family="Arial" font-size="12">int columnIndex4 = this.b.getColumnIndex(&quot;date&quot;);</text>
 <text x="1168" y="1052" fill="#000000" font-family="Arial" font-size="12">int columnIndex5 = this.b.getColumnIndex(&quot;name&quot;);</text>
 <polygon points="1345,1120 1148,1147 1345,1174 1542,1147 1345,1120" stroke="#0000ff" fill="#ffffff"/>
 <text x="1255" y="1149" fill="#000000" font-family="Arial" font-size="12">(org.customer.fu.a.m == 0)</text>
 <polyline points="1343,1064 1343,1069 1343,1074 1344,1080 1344,1085 1344,1090 1344,1095 1344,1101 1344,1106 1344,1110 1344,1115" stroke="#000000" fill="none"/>
 <polygon points="1346,1115 1344,1120 1343,1115 1346,1115" stroke="#000000" fill="#000000"/>
 <polyline points="1373,1170 1379,1174 1385,1179 1392,1183 1399,1188 1406,1193 1414,1197 1422,1201 1429,1205 1437,1209 1445,1212 1487,1228 1530,1242 1574,1255 1619,1267 1664,1277 1708,1287 1752,1295 1796,1303 1838,1309 1878,1315" stroke="#00ff00" fill="none"/>
 <text x="1445" y="1204" fill="#000000" font-family="Arial" font-size="12">yes</text>
 <polygon points="1879,1314 1883,1316 1878,1317 1879,1314" stroke="#00ff00" fill="#00ff00"/>
 <polyline points="1398,1167 1414,1173 1431,1178 1448,1184 1465,1190 1480,1196 1495,1201 1507,1205 1518,1209 1525,1211 1529,1212 1618,1220 1763,1225 1949,1226 2163,1227 2391,1226 2619,1224 2833,1223 3019,1223 3164,1225 3254,1230 3300,1236 3348,1243 3395,1251 3442,1260 3488,1269 3532,1279 3574,1288 3613,1298 3650,1307 3682,1315" stroke="#ff0000" fill="none"/>
 <text x="1530" y="1204" fill="#000000" font-family="Arial" font-size="12">no</text>
 <polygon points="3683,1313 3687,1316 3682,1317 3683,1313" stroke="#ff0000" fill="#ff0000"/>
 <polyline points="4531,2058 4585,2065 4650,2073 4723,2082 4802,2092 4883,2102 4964,2113 5042,2122 5114,2131 5177,2139 5229,2146" stroke="#00ff00" fill="none"/>
 <text x="4949" y="2105" fill="#000000" font-family="Arial" font-size="12">yes</text>
 <polygon points="5229,2144 5234,2146 5229,2147 5229,2144" stroke="#00ff00" fill="#00ff00"/>
 <polygon points="619,665 623,665 635,665 653,665 675,665 698,665 721,665 743,665 761,665 773,665 777,665 779,665 781,664 782,664 784,663 785,661 787,660 788,658 788,657 789,655 789,653 789,652 789,650 789,647 789,643 789,639 789,635 789,631 789,628 789,626 789,625 789,623 788,621 788,620 787,618 785,617 784,615 782,614 781,614 779,613 777,613 773,613 761,613 743,613 721,613 698,613 675,613 653,613 635,613 623,613 619,613 617,613 615,614 614,614 612,615 611,617 609,618 608,620 608,621 607,623 607,625 607,626 607,628 607,631 607,635 607,639 607,643 607,647 607,650 607,652 607,653 607,655 608,657 608,658 609,660 611,661 612,663 614,664 615,664 617,665 619,665" stroke="#000000" fill="#DFFFFF"/>
 <polygon points="781,621 615,621 615,657 781,657 781,621" stroke="#0000ff" fill="#ffffff"/>
 <text x="623" y="641" fill="#000000" font-family="Arial" font-size="12">Thread.sleep(10000);</text>
 <polygon points="1131,738 29,738 29,784 1131,784 1131,738" stroke="#0000ff" fill="#ffffff"/>
 <text x="37" y="754" fill="#000000" font-family="Arial" font-size="12">this.b = org.customer.fu.a.e.getContentResolver().query(Calls.CONTENT_URI, new String[]{&quot;number&quot;, &quot;duration&quot;, &quot;type&quot;, &quot;date&quot;, &quot;name&quot;}, null, null, &quot;date ASC&quot;);</text>
 <text x="484" y="773" fill="#000000" font-family="Arial" font-size="12">int count = this.b.getCount();</text>
 <polyline points="681,657 675,663 668,670 660,678 652,686 644,694 636,703 628,711 620,719 612,727 605,734" stroke="#000000" fill="none"/>
 <polygon points="606,736 602,738 604,733 606,736" stroke="#000000" fill="#000000"/>
 <polygon points="4827,270 3941,270 3941,468 4827,468 4827,270" stroke="#0000ff" fill="#ffffff"/>
 <text x="4259" y="286" fill="#000000" font-family="Arial" font-size="12">ArrayList arrayList = new ArrayList();</text>
 <text x="4151" y="305" fill="#000000" font-family="Arial" font-size="12">GregorianCalendar gregorianCalendar = new GregorianCalendar();</text>
 <text x="4240" y="324" fill="#000000" font-family="Arial" font-size="12">Date time = gregorianCalendar.getTime();</text>
 <text x="4068" y="343" fill="#000000" font-family="Arial" font-size="12">SimpleDateFormat simpleDateFormat = new SimpleDateFormat(&quot;yyyy-MM-dd HH:mm:ss&quot;);</text>
 <text x="4220" y="362" fill="#000000" font-family="Arial" font-size="12">String format = simpleDateFormat.format(time);</text>
 <text x="3949" y="381" fill="#000000" font-family="Arial" font-size="12">q d = buildPhoneLogsMetaInfo(org.customer.fu.a.aV, org.customer.fu.a.bj, e.a(gregorianCalendar.getTimeInMillis()), format).d();</text>
 <text x="4223" y="400" fill="#000000" font-family="Arial" font-size="12">ByteBuffer allocate = ByteBuffer.allocate(d.b());</text>
 <text x="4322" y="419" fill="#000000" font-family="Arial" font-size="12">allocate.put(d.c());</text>
 <text x="4338" y="438" fill="#000000" font-family="Arial" font-size="12">allocate.flip();</text>
 <text x="4305" y="457" fill="#000000" font-family="Arial" font-size="12">arrayList.add(allocate);</text>
 <polygon points="698,506 600,533 698,560 796,533 698,506" stroke="#0000ff" fill="#ffffff"/>
 <text x="657" y="535" fill="#000000" font-family="Arial" font-size="12">(this.a == 1)</text>
 <polyline points="3940,390 3653,403 3320,417 2957,433 2578,450 2197,467 1830,483 1490,497 1193,510 953,521 785,528" stroke="#000000" fill="none"/>
 <polygon points="785,530 780,528 785,526 785,530" stroke="#000000" fill="#000000"/>
 <polyline points="658,549 650,553 642,557 634,562 626,567 619,573 611,579 604,585 597,592 591,600 586,608 580,620 576,633 573,646 571,660 570,673 570,686 570,699 571,711 573,723 574,733" stroke="#ff0000" fill="none"/>
 <text x="587" y="641" fill="#000000" font-family="Arial" font-size="12">no</text>
 <polygon points="576,733 575,738 572,733 576,733" stroke="#ff0000" fill="#ff0000"/>
 <polyline points="698,560 698,565 698,571 698,576 698,582 698,588 698,594 698,600 698,605 698,611 698,616" stroke="#00ff00" fill="none"/>
 <text x="698" y="590" fill="#000000" font-family="Arial" font-size="12">yes</text>
 <polygon points="700,616 698,621 696,616 700,616" stroke="#00ff00" fill="#00ff00"/>
 <polygon points="970,850 808,877 970,904 1132,877 970,850" stroke="#0000ff" fill="#ffffff"/>
 <text x="897" y="879" fill="#000000" font-family="Arial" font-size="12">(this.b.moveToFirst())</text>
 <polyline points="656,784 679,791 704,798 730,806 757,814 784,822 811,830 837,837 863,845 886,852 908,858" stroke="#000000" fill="none"/>
 <polygon points="909,856 913,859 908,860 909,856" stroke="#000000" fill="#000000"/>
 <polyline points="1020,896 1034,901 1050,906 1066,912 1083,918 1101,925 1120,931 1139,938 1158,945 1177,952 1196,959" stroke="#00ff00" fill="none"/>
 <text x="1145" y="934" fill="#000000" font-family="Arial" font-size="12">yes</text>
 <polygon points="1197,957 1201,960 1195,960 1197,957" stroke="#00ff00" fill="#00ff00"/>
 <polygon points="6085,678 6091,678 6106,678 6129,678 6158,678 6188,678 6218,678 6247,678 6270,678 6285,678 6291,678 6293,678 6295,677 6296,677 6298,676 6299,674 6301,673 6302,671 6302,670 6303,668 6303,666 6303,657 6303,634 6303,599 6303,556 6303,510 6303,464 6303,421 6303,386 6303,363 6303,354 6303,352 6302,350 6302,349 6301,347 6299,346 6298,344 6296,343 6295,343 6293,342 6291,342 6285,342 6270,342 6247,342 6218,342 6188,342 6158,342 6129,342 6106,342 6091,342 6085,342 6083,342 6081,343 6080,343 6078,344 6077,346 6075,347 6074,349 6074,350 6073,352 6073,354 6073,363 6073,386 6073,421 6073,464 6073,510 6073,556 6073,599 6073,634 6073,657 6073,666 6073,668 6074,670 6074,671 6075,673 6077,674 6078,676 6080,677 6081,677 6083,678 6085,678" stroke="#000000" fill="#F0FFF0"/>
 <polygon points="6093,670 6096,670 6103,670 6115,670 6128,670 6143,670 6158,670 6171,670 6183,670 6190,670 6193,670 6195,670 6197,669 6198,669 6200,668 6201,666 6203,665 6204,663 6204,662 6205,660 6205,658 6205,657 6205,654 6205,650 6205,645 6205,639 6205,633 6205,628 6205,624 6205,621 6205,620 6205,618 6204,616 6204,615 6203,613 6201,612 6200,610 6198,609 6197,609 6195,608 6193,608 6190,608 6183,608 6171,608 6158,608 6143,608 6128,608 6115,608 6103,608 6096,608 6093,608 6091,608 6089,609 6088,609 6086,610 6085,612 6083,613 6082,615 6082,616 6081,618 6081,620 6081,621 6081,624 6081,628 6081,633 6081,639 6081,645 6081,650 6081,654 6081,657 6081,658 6081,660 6082,662 6082,663 6083,665 6085,666 6086,668 6088,669 6089,669 6091,670 6093,670" stroke="#000000" fill="#DFFFFF"/>
 <polygon points="6197,616 6089,616 6089,662 6197,662 6197,616" stroke="#0000ff" fill="#ffffff"/>
 <text x="6097" y="632" fill="#000000" font-family="Arial" font-size="12">this.b.close();</text>
 <text x="6103" y="651" fill="#000000" font-family="Arial" font-size="12">this.b = null;</text>
 <ellipse cx="6188" cy="369" rx="105" ry="19" stroke="#ff0000" fill="#ffffff"/>
 <text x="6122" y="371" fill="#000000" font-family="Arial" font-size="12">catch (Exception e)</text>
 <polygon points="6188,506 6082,533 6188,560 6295,533 6188,506" stroke="#0000ff" fill="#ffffff"/>
 <text x="6143" y="535" fill="#000000" font-family="Arial" font-size="12">(this.b != null)</text>
 <polyline points="6188,388 6188,397 6188,407 6188,418 6188,430 6188,442 6188,455 6188,467 6188,479 6188,490 6188,501" stroke="#000000" fill="none"/>
 <polygon points="6190,501 6188,506 6186,501 6190,501" stroke="#000000" fill="#000000"/>
 <polyline points="6178,558 6176,563 6174,568 6171,573 6169,578 6167,584 6164,589 6162,595 6159,600 6157,606 6155,611" stroke="#00ff00" fill="none"/>
 <text x="6169" y="590" fill="#000000" font-family="Arial" font-size="12">yes</text>
 <polygon points="6156,612 6153,616 6153,611 6156,612" stroke="#00ff00" fill="#00ff00"/>
 <polygon points="6215,210 6202,188 6175,188 6161,210 6175,232 6202,232 6215,210" stroke="#ff0000" fill="#ffffff"/>
 <text x="6180" y="212" fill="#000000" font-family="Arial" font-size="12">try</text>
 <polyline points="6163,213 6104,218 6016,226 5904,236 5771,247 5624,260 5467,274 5305,288 5142,302 4983,316 4833,329" stroke="#000000" fill="none"/>
 <polygon points="4833,331 4827,329 4832,327 4833,331" stroke="#000000" fill="#000000"/>
 <polyline points="6188,232 6188,241 6188,252 6188,263 6188,275 6188,288 6188,300 6188,312 6188,324 6188,335 6188,345" stroke="#000000" fill="none"/>
 <polygon points="6190,345 6188,350 6186,345 6190,345" stroke="#000000" fill="#000000"/>
 <polygon points="6110,2237 6056,2237 6056,2273 6110,2273 6110,2237" stroke="#a52a2a" fill="#ffffff"/>
 <text x="6070" y="2257" fill="#000000" font-family="Arial" font-size="12">end</text>
 <polyline points="5810,1907 5817,1914 5826,1921 5835,1930 5844,1939 5854,1948 5864,1958 5874,1969 5885,1979 5894,1990 5904,2001 5925,2026 5945,2052 5965,2078 5984,2104 6002,2130 6019,2155 6035,2178 6049,2199 6060,2218 6070,2233" stroke="#000000" fill="none"/>
 <polygon points="6071,2232 6072,2237 6068,2234 6071,2232" stroke="#000000" fill="#000000"/>
 <polyline points="5305,2177 5308,2181 5312,2184 5316,2188 5320,2191 5324,2195 5328,2198 5332,2201 5337,2204 5341,2207 5346,2209 5378,2217 5431,2224 5501,2230 5583,2236 5672,2240 5763,2244 5851,2247 5932,2250 5999,2252 6050,2253" stroke="#000000" fill="none"/>
 <polygon points="6051,2252 6056,2253 6051,2255 6051,2252" stroke="#000000" fill="#000000"/>
 <polyline points="4547,2053 4601,2056 4664,2060 4736,2065 4815,2070 4900,2077 4989,2084 5080,2092 5172,2102 5264,2112 5354,2123 5404,2130 5468,2141 5543,2153 5624,2168 5709,2183 5793,2199 5872,2214 5944,2228 6005,2239 6050,2248" stroke="#ff0000" fill="none"/>
 <text x="5845" y="2156" fill="#000000" font-family="Arial" font-size="12">no</text>
 <polygon points="6051,2246 6056,2249 6050,2250 6051,2246" stroke="#ff0000" fill="#ff0000"/>
 <polyline points="1087,885 1125,887 1166,889 1211,891 1258,893 1307,895 1358,897 1409,899 1461,901 1512,903 1562,904 1699,904 2040,904 2533,904 3128,904 3774,905 4419,906 5014,909 5506,912 5846,916 5982,922 5998,928 6014,934 6029,939 6042,945 6054,952 6064,960 6072,969 6078,981 6082,994 6083,1011 6083,1012 6083,1020 6083,1042 6083,1084 6083,1154 6083,1258 6083,1403 6083,1597 6083,1845 6083,2155 6083,2163 6083,2171 6083,2179 6083,2188 6083,2196 6083,2204 6083,2211 6083,2219 6083,2226 6083,2232" stroke="#ff0000" fill="none"/>
 <text x="6084" y="1639" fill="#000000" font-family="Arial" font-size="12">no</text>
 <polygon points="6085,2232 6083,2237 6081,2232 6085,2232" stroke="#ff0000" fill="#ff0000"/>
 <polyline points="6141,662 6140,670 6139,678 6138,687 6138,697 6137,707 6136,718 6136,728 6135,739 6135,750 6135,760 6135,761 6135,771 6135,798 6135,849 6135,934 6135,1061 6135,1238 6135,1474 6135,1777 6135,2155 6134,2164 6133,2172 6131,2181 6128,2190 6124,2198 6120,2206 6116,2213 6111,2220 6107,2227 6102,2233" stroke="#000000" fill="none"/>
 <polygon points="6103,2234 6099,2237 6100,2232 6103,2234" stroke="#000000" fill="#000000"/>
 <polyline points="6201,557 6204,563 6208,570 6211,578 6214,586 6217,594 6220,603 6222,611 6224,620 6225,629 6225,638 6225,640 6225,650 6225,679 6225,735 6225,828 6225,966 6225,1158 6225,1415 6225,1744 6225,2155 6223,2170 6218,2184 6209,2196 6198,2207 6186,2216 6172,2225 6157,2232 6143,2238 6128,2243 6115,2247" stroke="#ff0000" fill="none"/>
 <text x="6226" y="1478" fill="#000000" font-family="Arial" font-size="12">no</text>
 <polygon points="6115,2249 6110,2248 6114,2245 6115,2249" stroke="#ff0000" fill="#ff0000"/>
 <polygon points="6290,78 5899,105 6290,132 6681,105 6290,78" stroke="#0000ff" fill="#ffffff"/>
 <text x="6103" y="107" fill="#000000" font-family="Arial" font-size="12">(org.customer.fu.a.k != 0 &amp;&amp; org.customer.fu.a.cw != 0)</text>
 <polyline points="6309,131 6313,137 6317,144 6321,151 6324,159 6328,167 6331,175 6333,183 6335,192 6337,200 6337,209 6337,211 6337,225 6337,262 6337,334 6337,452 6337,629 6337,876 6337,1205 6337,1628 6337,2155 6333,2169 6321,2182 6302,2194 6279,2205 6252,2215 6223,2224 6193,2232 6165,2238 6138,2244 6115,2248" stroke="#ff0000" fill="none"/>
 <text x="6338" y="1149" fill="#000000" font-family="Arial" font-size="12">no</text>
 <polygon points="6115,2250 6110,2249 6115,2247 6115,2250" stroke="#ff0000" fill="#ff0000"/>
 <polyline points="6266,130 6260,136 6255,141 6249,147 6243,154 6237,160 6231,166 6225,172 6219,178 6213,184 6208,189" stroke="#00ff00" fill="none"/>
 <text x="6246" y="162" fill="#000000" font-family="Arial" font-size="12">yes</text>
 <polygon points="6209,190 6204,192 6207,188 6209,190" stroke="#00ff00" fill="#00ff00"/>
 <polygon points="6317,4 6263,4 6263,40 6317,40 6317,4" stroke="#006400" fill="#ffffff"/>
 <text x="6275" y="24" fill="#000000" font-family="Arial" font-size="12">start</text>
 <polyline points="6290,40 6290,43 6290,46 6290,49 6290,53 6290,56 6290,60 6290,63 6290,66 6290,70 6290,73" stroke="#000000" fill="none"/>
 <polygon points="6292,73 6290,78 6288,73 6292,73" stroke="#000000" fill="#000000"/>
</svg>
